<?xml version="1.0" encoding="utf-8"?>
<!-- Generator: Adobe Illustrator 15.0.2, SVG Export Plug-In  -->
<!DOCTYPE svg PUBLIC "-//W3C//DTD SVG 1.1 Tiny//EN" "http://www.w3.org/Graphics/SVG/1.1/DTD/svg11-tiny.dtd" [
	<!ENTITY ns_flows "http://ns.adobe.com/Flows/1.0/">
]>
<svg version="1.1" baseProfile="tiny"
	 xmlns="http://www.w3.org/2000/svg" xmlns:xlink="http://www.w3.org/1999/xlink" xmlns:a="http://ns.adobe.com/AdobeSVGViewerExtensions/3.0/"
	 x="0px" y="0px" width="148px" height="386px" viewBox="-0.3 -0.7 148 386" xml:space="preserve">
<defs>
</defs>
<path fill="#333333" d="M85.1,357.1c-13,0.3-63.5-1.1-63.5,16.2c0,8.7,19,4.9,29.8,4c20.6-1.7,11.6,10.7,51.6,8.3
	c18.2-1.1,28.7-4.7,28.7-15.2C131.8,357.8,101.1,356.7,85.1,357.1z"/>
<path fill="#D9B08C" d="M9.1,223.6c1.3,0.8-2,10.7,2.1,13c2.8,1.7,5.7-0.1,6.5-5.7c1.4-9.1-5.1-27.2-4.5-29s13.7-28,14.8-30
	s0.9-7.6,0.9-7.6c3.9-3.3,11.1-19.4,12.2-21.2l-16.9-6.3c-0.5,2.4-20.1,55.3-21.4,62.7c-1.3,7.3-3.2,28-2.2,29.8s2.4,9.8,2.9,10.8
	s9.8,9.3,12.5,8.5c3.6,0.1,5.2-7.1,0.6-9.3c-3.4-1.6-2.7-1.2-3-2.1c0,0,3.9,1.7,4.1-0.8c0.3-3.4-3.1-5.6-5.4-5.4"/>
<path fill="#333333" d="M41.1,143.2c-0.9,1.8-1.7,3.7-2.6,5.5c-0.9,1.8-1.8,3.7-2.7,5.5c-0.9,1.8-1.9,3.6-2.9,5.4
	c-1.1,1.7-2.1,3.5-3.7,5l0.1-0.3c0.1,2,0.1,4-0.3,6c-0.1,0.5-0.2,1-0.4,1.5c-0.1,0.3-0.2,0.5-0.4,0.7l-0.3,0.7l-1.3,2.6l-5.3,10.6
	L16,197.2l-1.3,2.7l-0.6,1.3l-0.3,0.7c-0.1,0.3-0.1,0.3-0.1,0.5c0.1,0.9,0.3,1.9,0.5,2.8l0.7,2.9c1,3.8,1.9,7.7,2.6,11.6
	c0.4,2,0.6,3.9,0.8,5.9c0.1,2,0.1,4-0.2,6c-0.2,1-0.5,2-0.9,2.9c-0.4,0.9-1,1.8-1.9,2.4c-0.9,0.6-2.1,0.7-3.1,0.4
	c-0.5-0.2-0.9-0.4-1.4-0.7c-0.4-0.3-0.7-0.8-1-1.2c-0.5-0.9-0.7-1.9-0.7-2.9c-0.1-1,0-2,0-3c0.1-1,0.2-2,0.3-3
	c0.1-0.5,0.1-1,0.1-1.5c0-0.2,0-0.5,0-0.7c0-0.2-0.1-0.5-0.3-0.7c0.2,0.1,0.3,0.4,0.3,0.7c0,0.2,0,0.5,0.1,0.7c0,0.5,0,1-0.1,1.5
	c-0.1,1-0.2,2-0.2,3c-0.1,1.9-0.1,4,0.8,5.7c0.5,0.8,1.3,1.4,2.2,1.7c0.9,0.3,1.9,0.2,2.6-0.3c0.8-0.5,1.3-1.3,1.7-2.2
	c0.4-0.9,0.6-1.8,0.8-2.8c0.3-1.9,0.3-3.9,0.1-5.8c-0.2-2-0.5-3.9-0.8-5.8c-0.7-3.9-1.7-7.7-2.7-11.5l-0.7-2.9c-0.2-1-0.5-1.9-0.6-3
	c0-0.3,0.1-0.7,0.2-0.9l0.3-0.7l0.6-1.4l1.3-2.7l5.3-10.6l5.4-10.6l1.4-2.6l0.4-0.7c0.1-0.2,0.3-0.4,0.3-0.6
	c0.2-0.4,0.3-0.9,0.4-1.3c0.3-1.9,0.4-3.9,0.4-5.8l0-0.2l0.1-0.1c1.4-1.3,2.5-3.1,3.6-4.8c1.1-1.7,2.1-3.5,3.1-5.3
	c1-1.8,1.9-3.6,2.9-5.4C39.2,146.8,40.1,145,41.1,143.2z"/>
<path fill="#333333" d="M24.2,136.8c-1.5,4.9-3.3,9.7-5,14.5l-5.1,14.5c-3.4,9.7-6.8,19.3-9.9,29.1c-0.4,1.2-0.7,2.4-1,3.7
	c-0.3,1.2-0.5,2.5-0.7,3.8c-0.4,2.5-0.6,5.1-0.9,7.6c-0.5,5.1-1,10.2-1.1,15.3c0,1.3-0.1,2.6,0.2,3.8c0.5,1.1,0.9,2.4,1.2,3.7
	c0.3,1.2,0.6,2.5,0.9,3.7l0.4,1.9c0.2,0.6,0.3,1.3,0.5,1.8c0.8,0.9,1.8,1.8,2.7,2.6c1,0.8,1.9,1.7,3,2.4c1,0.8,2.1,1.5,3.1,2.2
	c0.5,0.3,1.1,0.6,1.7,0.9c0.6,0.2,1.2,0.4,1.8,0.2l0-0.1h0c1,0,1.8-0.5,2.3-1.4c0.5-0.8,0.8-1.8,0.9-2.8c0.1-1-0.1-2-0.5-2.8
	c-0.4-0.9-1.2-1.6-2.1-1.9l0,0c-0.6-0.2-1.2-0.4-1.8-0.7c-0.3-0.2-0.6-0.3-0.8-0.6c-0.2-0.2-0.5-0.6-0.3-1l0-0.1l0.1,0
	c0.6,0.3,1.2,0.5,1.8,0.6c0.6,0.1,1.3,0.1,1.7-0.3c0.4-0.4,0.4-1.1,0.4-1.7c-0.1-0.6-0.3-1.2-0.5-1.8l0.1,0c0.2,0.6,0.4,1.2,0.5,1.8
	c0.1,0.6,0.1,1.3-0.4,1.9c-0.5,0.5-1.2,0.5-1.9,0.4c-0.6-0.1-1.2-0.3-1.8-0.6l0.1,0c-0.1,0.2,0.1,0.5,0.3,0.7
	c0.2,0.2,0.5,0.4,0.8,0.6c0.6,0.3,1.2,0.8,1.8,0.8h0l0-0.1c1,0.4,1.8,1.1,2.2,2c0.5,0.9,0.6,2,0.6,3c-0.1,1-0.3,2-0.9,2.9
	c-0.5,0.9-1.5,1.6-2.6,1.5l0,0c-0.7,0.2-1.4-0.1-2-0.3c-0.6-0.2-1.2-0.5-1.7-0.9c-1.1-0.7-2.2-1.4-3.2-2.2c-1-0.8-2-1.6-3-2.4
	c-1-0.9-1.9-1.7-2.8-2.7c-0.3-0.7-0.4-1.3-0.6-1.9l-0.4-1.9c-0.3-1.2-0.6-2.5-0.9-3.7c-0.3-1.3-0.6-2.4-1.2-3.6
	c-0.3-1.3-0.2-2.6-0.2-3.9c0.1-5.1,0.6-10.2,1.1-15.3c0.3-2.5,0.6-5.1,0.9-7.6c0.2-1.3,0.4-2.5,0.7-3.8c0.3-1.2,0.7-2.5,1.1-3.7
	c3.1-9.8,6.6-19.4,10-29l5.2-14.4C20.7,146.5,22.6,141.7,24.2,136.8z"/>
<path fill="#D9B08C" d="M115.4,298.5c1-10.7-2.3-21.3-2.7-23.2l-17,4.1l1.9,18.5L115.4,298.5z"/>
<path fill="#333333" d="M112.7,275.3c0.5,1.9,1.1,3.8,1.5,5.7c0.4,1.9,0.8,3.8,1.1,5.8c0.2,1.9,0.4,3.9,0.4,5.9c0,2-0.1,3.9-0.3,5.9
	c0.2-3.9-0.1-7.8-0.6-11.7c-0.2-1.9-0.6-3.9-0.9-5.8C113.5,279.2,113.1,277.3,112.7,275.3z"/>
<path fill="#D9B08C" d="M38.4,297.2c-2.8-6.7-2.3-21.8-2.3-21.8l15.4,7.2l-6.3,13.3L38.4,297.2z"/>
<path fill="#333333" d="M38.4,297.2c-0.8-1.7-1.3-3.5-1.6-5.3c-0.3-1.8-0.5-3.7-0.7-5.5c-0.1-1.8-0.2-3.7-0.2-5.5
	c0-1.8,0-3.7,0.2-5.5c0.1,1.8,0.1,3.7,0.2,5.5c0.1,1.8,0.2,3.7,0.3,5.5c0.1,1.8,0.3,3.7,0.6,5.5C37.5,293.6,37.8,295.4,38.4,297.2z"
	/>
<g id="XMLID_11_">
	<g>
		<path fill="#D9B08C" d="M129.9,245.9c-3.7,0-3.8-5.2,0.3-7.3c0.8-0.4,1.5-0.8,2.1-1c1.6-0.5,3.2-1.4,3.3-1.4
			c-0.6-0.8-1-2.3-1.4-4.5c0-0.1,0-0.3-0.1-0.5c-1.2-9.2,2.4-25.3,1.9-27.1c-0.5-1.8-13.8-28-14.8-30c-1.1-2-0.9-7.7-0.9-7.7
			c-3.8-3.3-8.8-17.2-9.9-19l15.8-5.5c0.5,2.4,19,52.3,20.3,59.7c1.3,7.3,1.7,25,0.7,26.8s-4.7,8.8-5.2,9.8S132.6,246.7,129.9,245.9
			z"/>
		<path fill="#D9B08C" d="M132.3,237.5c2.5-1.2,3.2-1.4,3.3-1.4C135.5,236.1,133.9,237,132.3,237.5z"/>
		<path fill="#D9B08C" d="M132.3,237.5c-2,0.6-4.1,0.8-3.7-1.6c0.6-3.5,4.4-4.6,5.6-4.8h0c0,0.2,0,0.3,0.1,0.5
			c0.3,2.2,0.8,3.7,1.4,4.5C135.5,236.1,134.9,236.3,132.3,237.5z"/>
	</g>
	<g>
	</g>
</g>
<path fill="#333333" d="M126.3,141.8c1.5,4.6,3.2,9.1,4.8,13.6l4.9,13.6c3.2,9.1,6.5,18.2,9.4,27.4c0.7,2.3,1.4,4.6,1.7,7.1
	c0.3,2.4,0.5,4.8,0.7,7.2c0.3,4.8,0.4,9.7,0.2,14.5c0,0.6-0.1,1.2-0.2,1.8c0,0.3-0.1,0.6-0.2,0.9c0,0.2-0.1,0.3-0.2,0.5l-0.2,0.4
	l-1.7,3.2c-1.1,2.1-2.2,4.2-3.4,6.4c-0.8,0.9-1.8,1.7-2.7,2.5c-0.9,0.8-1.9,1.5-2.9,2.2c-1,0.7-2,1.3-3.1,1.9
	c-0.5,0.3-1.1,0.5-1.7,0.7c-0.6,0.2-1.2,0.4-1.9,0.2l0.1,0c-0.8,0-1.6-0.2-2.1-0.8c-0.6-0.6-0.7-1.4-0.7-2.2c0.1-1.6,1-2.9,2.1-3.9
	c0.6-0.5,1.2-0.9,1.9-1.2c0.7-0.4,1.3-0.7,2.1-0.9c0.7-0.2,1.5-0.4,2.2-0.5c0.4-0.1,0.7-0.2,1-0.4c0.3-0.2,0.5-0.5,0.6-0.8l0.2,0.2
	c-1.6,0.8-3.2,1.6-4.9,2c-0.8,0.2-1.7,0.4-2.6,0.2c-0.4-0.1-0.9-0.4-1-0.9c-0.2-0.4-0.1-0.9,0-1.3c0.3-1.8,1.7-3.2,3.3-3.8
	c0.8-0.3,1.7-0.6,2.5-0.7c0.9-0.1,1.8-0.1,2.6,0.1c-0.8-0.3-1.7-0.2-2.6-0.1c-0.9,0.1-1.7,0.3-2.5,0.7c-1.6,0.7-3,2-3.2,3.8
	c-0.1,0.4-0.1,0.9,0,1.3c0.1,0.4,0.5,0.7,0.9,0.8c0.8,0.2,1.7,0,2.5-0.3c1.7-0.5,3.3-1.3,4.8-2.1l0.3-0.2l-0.2,0.4
	c-0.2,0.3-0.4,0.7-0.7,0.9c-0.3,0.2-0.7,0.3-1.1,0.4c-0.7,0.1-1.5,0.2-2.2,0.5c-0.7,0.2-1.4,0.5-2,0.9c-0.6,0.4-1.3,0.7-1.8,1.2
	c-1.1,0.9-1.9,2.3-2,3.7c0,0.7,0.1,1.3,0.6,1.8c0.5,0.5,1.2,0.5,1.9,0.5h0l0,0.2c0.5,0.1,1.1,0.1,1.7-0.1c0.6-0.2,1.1-0.4,1.6-0.7
	c1.1-0.6,2.1-1.2,3-1.9c1-0.7,1.9-1.4,2.9-2.2c0.9-0.8,1.9-1.5,2.6-2.4l3.3-6.4l1.7-3.2l0.2-0.4c0.1-0.1,0.1-0.2,0.1-0.4
	c0.1-0.3,0.1-0.6,0.2-0.9c0.1-0.6,0.1-1.2,0.2-1.8c0.2-4.8,0.1-9.6-0.2-14.4c-0.1-2.4-0.3-4.8-0.6-7.2c-0.2-2.4-0.9-4.7-1.6-7
	c-2.9-9.2-6.1-18.3-9.3-27.4l-4.8-13.7C129.4,151,127.7,146.5,126.3,141.8z"/>
<path fill="#D9B08C" d="M135,234.9c0,0,0.9,2.2,1.9,2.1s1.3-2.6,1.3-2.6l-1.6-0.2L135,234.9z"/>
<polygon fill="#D9B08C" points="134.4,230.3 134,230.7 134.1,231.3 137.7,231.3 137.4,230.3 "/>
<path fill="#333333" d="M110.5,147.4c0.9,1.6,1.5,3.2,2.3,4.9c0.7,1.6,1.5,3.3,2.2,4.9c0.8,1.6,1.6,3.2,2.5,4.8
	c0.9,1.5,1.8,3.1,3.1,4.2l0.1,0.1l0,0.2c0,1.9,0,3.7,0.3,5.5c0.1,0.4,0.2,0.9,0.3,1.3c0.1,0.2,0.2,0.4,0.3,0.6l0.3,0.6l1.3,2.5
	l5.1,10l5,10.1c0.8,1.7,1.6,3.4,2.4,5.1c0.2,0.4,0.4,0.9,0.6,1.3c0.1,0.2,0.2,0.6,0.2,0.8c0,0.3,0,0.5,0,0.8c-0.1,1-0.2,1.9-0.3,2.8
	c-0.5,3.7-1.1,7.4-1.5,11.2c-0.4,3.7-0.7,7.5-0.4,11.2c0.1,0.9,0.2,1.8,0.4,2.8c0.2,0.9,0.4,1.8,0.8,2.6c0.2,0.4,0.5,0.7,0.8,0.9
	c0.3,0.2,0.8,0.2,1.2,0.1c0.4-0.1,0.8-0.3,1.3-0.5c0.4-0.2,0.8-0.4,1.1-0.7c0.7-0.6,1.1-1.5,1.3-2.3c0.2-0.9,0.3-1.8,0.3-2.8
	c0-0.9,0-1.9,0-2.8c0-0.5,0-0.9,0-1.4c0-0.4,0-1,0.4-1.3c-0.4,0.3-0.3,0.9-0.4,1.3c0,0.5,0,0.9,0.1,1.4c0.1,0.9,0.1,1.9,0.1,2.8
	c0,0.9,0,1.9-0.3,2.8c-0.2,0.9-0.6,1.9-1.3,2.6c-0.4,0.4-0.8,0.6-1.2,0.8c-0.4,0.2-0.9,0.4-1.4,0.6c-0.5,0.1-1.1,0.1-1.5-0.2
	c-0.5-0.3-0.8-0.7-1.1-1.1c-0.5-0.9-0.7-1.8-0.9-2.7c-0.2-0.9-0.4-1.9-0.5-2.8c-0.4-3.8-0.1-7.6,0.2-11.3c0.4-3.8,0.9-7.5,1.4-11.2
	c0.1-0.9,0.2-1.9,0.3-2.8c0-0.2,0-0.5,0-0.7c0-0.2,0-0.3-0.1-0.5c-0.2-0.4-0.4-0.8-0.6-1.3l-2.4-5.1l-5-10.1l-5-10.1l-1.3-2.5
	l-0.3-0.6c-0.1-0.2-0.2-0.5-0.3-0.7c-0.2-0.5-0.2-1-0.3-1.4c-0.3-1.9-0.3-3.8-0.2-5.7l0.1,0.3c-1.4-1.3-2.3-2.9-3.2-4.4
	c-0.9-1.6-1.6-3.2-2.4-4.9c-0.7-1.6-1.4-3.3-2.1-5C111.9,150.7,111.3,149,110.5,147.4z"/>
<g id="XMLID_10_">
	<g>
		<path fill="#3C2415" d="M96,96l0.1,3.9l-17.3-7.2V69l19-36.5l17.4,18.4c-1.8,13.7-8.2,22.3-8.2,29.3c0,3.8,7.7,8.7,9.8,8.5
			c0,0-5.5,1-8.8,0c0,0,2.8,5.3,5.3,5.2c0,0-14.7,3-19.7-4.3C93.7,89.5,94,94.9,96,96z"/>
	</g>
	<g>
	</g>
</g>
<path fill="#333333" d="M115.2,50.8c-0.5,3.7-1.3,7.3-2.4,10.8c-1.1,3.5-2.5,7-3.8,10.4c-0.6,1.7-1.2,3.5-1.6,5.3
	c-0.2,0.9-0.3,1.8-0.3,2.7c0,0.9,0.4,1.7,0.8,2.5c1,1.5,2.4,2.7,3.9,3.7c0.8,0.5,1.5,1,2.4,1.4c0.8,0.4,1.7,0.8,2.5,0.8l0.1,0.5
	c-1.5,0.3-3,0.4-4.5,0.4c-1.5,0-3,0-4.5-0.5l0.3-0.3c0.6,1.1,1.3,2.2,2.1,3.2c0.4,0.5,0.9,0.9,1.4,1.3c0.5,0.4,1.1,0.7,1.6,0.6
	l0.1,0.4c-1.8,0.3-3.5,0.5-5.3,0.6c-1.8,0.1-3.5,0-5.3-0.2c-1.8-0.2-3.5-0.7-5.1-1.4c-1.6-0.7-3.1-1.9-4.1-3.4l0.1,0
	c0.1,1.2,0.3,2.3,0.5,3.5c0.2,0.6,0.3,1.1,0.6,1.7c0.3,0.5,0.6,1,1.1,1.4c-0.5-0.3-0.9-0.8-1.1-1.3c-0.3-0.5-0.5-1.1-0.6-1.7
	c-0.3-1.1-0.5-2.3-0.6-3.5l0-0.3l0.2,0.2c1,1.4,2.5,2.5,4,3.2c1.6,0.7,3.3,1.1,5,1.4c1.7,0.2,3.5,0.3,5.3,0.2
	c1.8-0.1,3.5-0.3,5.2-0.6l0.1,0.4c-0.7,0-1.4-0.3-1.9-0.7c-0.5-0.4-1-0.9-1.4-1.4c-0.9-1-1.6-2.1-2.2-3.2l-0.3-0.5l0.5,0.1
	c1.4,0.4,2.9,0.4,4.3,0.4c1.5,0,2.9-0.2,4.4-0.4l0.1,0.5c-1.1,0-1.9-0.4-2.7-0.8c-0.8-0.4-1.6-0.9-2.4-1.4c-1.5-1.1-3-2.3-4-3.9
	c-0.5-0.8-0.9-1.7-0.9-2.7c0-0.9,0.1-1.9,0.3-2.8c0.4-1.8,1-3.6,1.6-5.3c1.3-3.5,2.7-6.9,3.8-10.4C113.7,58.1,114.6,54.5,115.2,50.8
	z"/>
<g id="XMLID_9_">
	<g>
		<path fill="#D9B08C" d="M65.6,91c1.1-1.6,0.6-11.1,0.6-11.1l18.1-1c0,0,0.1,11.7,2.7,13.9l3,3.3c0,0-8.6,8.5-17.4,8.7
			c-4.5,0-8.3-5.6-12.6-8.3L65.6,91z"/>
	</g>
	<g>
	</g>
</g>
<path fill="#333333" d="M84.3,78.8c0.4,2.4,0.7,4.8,1,7.1c0.2,1.2,0.3,2.3,0.5,3.5c0.3,1.1,0.5,2.3,1.2,3.3
	c-0.5-0.3-0.9-0.9-1.2-1.4c-0.3-0.5-0.5-1.1-0.7-1.7c-0.4-1.2-0.6-2.4-0.8-3.6c-0.2-1.2-0.2-2.4-0.2-3.6
	C84.1,81.2,84.1,80,84.3,78.8z"/>
<path fill="#333333" d="M66.2,79.9c0.3,1.9,0.4,3.7,0.4,5.6c0,0.9-0.1,1.9-0.2,2.8c-0.1,0.9-0.2,1.9-0.8,2.7
	c0.2-0.4,0.2-0.9,0.3-1.4c0.1-0.5,0.1-0.9,0.1-1.4l0.1-2.8C66.1,83.6,66.1,81.7,66.2,79.9z"/>
<g id="XMLID_8_">
	<g>
		<path fill="#373737" d="M105.6,359.1c-0.8-1.8-0.3-18.5,0-19.8l19.2-1c0.4,1.5-0.4,9.3,0,10.3c0.4,1,5.3,8.8,5.2,15
			c0,0,3.4,1.9,1.7,7.9c0,0-2,1.1-11.4,1.5c-7.1,0.3-13.9-1-13.9-1c-2.2-1.1-1.3-6.9-1.3-6.9c0-3.4,3.2-4.9,2.5-5.3
			S105.6,359.1,105.6,359.1z"/>
	</g>
	<g>
	</g>
</g>
<path fill="#333333" d="M105.6,339.3c-0.1,1.6-0.1,3.3-0.2,4.9c0,1.6,0,3.3,0,4.9l0.1,4.9c0,0.8,0.1,1.6,0.1,2.5
	c0.1,0.8,0.1,1.7,0.3,2.3l-0.2-0.2c0.7,0.2,1.4,0.4,2,0.7l0.1,0.1l0,0c0,0,0,0,0.1,0l0,0c0,0,0,0,0.1,0.1c0.1,0.2,0.1,0.3,0.1,0.4
	c0,0.1-0.1,0.2-0.1,0.2c-0.1,0.2-0.3,0.3-0.4,0.5c-0.2,0.3-0.4,0.5-0.6,0.8c-0.9,1-1.3,2.2-1.3,3.5v0l-0.1,0
	c-0.2,1.2-0.2,2.4-0.2,3.6c0.1,0.6,0.1,1.2,0.3,1.7c0.2,0.5,0.5,1,0.9,1.2l-0.1,0c2.1,0.4,4.2,0.6,6.3,0.8c2.1,0.2,4.2,0.2,6.3,0.2
	c2.1-0.1,4.2-0.2,6.3-0.4c1-0.1,2.1-0.2,3.1-0.4c0.5-0.1,1-0.2,1.5-0.3c0.5-0.1,1-0.2,1.4-0.4l-0.2,0.3c0.4-1.3,0.6-2.7,0.4-4.1
	c-0.1-0.7-0.3-1.3-0.6-1.9c-0.3-0.6-0.8-1.1-1.3-1.4l-0.2-0.1l0-0.2c0-2.1-0.5-4.3-1.1-6.3c-0.7-2.1-1.6-4.1-2.6-6l-0.7-1.5
	l-0.4-0.7c-0.1-0.2-0.3-0.6-0.3-0.9c-0.1-1.1,0-2.2,0.1-3.3l0.2-3.3c0-1.1,0.2-2.2,0-3.3c0.2,1.1,0.1,2.2,0.2,3.3l-0.1,3.3
	c0,1.1-0.1,2.2,0,3.3c0,0.3,0.1,0.4,0.2,0.7l0.4,0.7l0.8,1.4c1,1.9,2,3.9,2.7,6c0.7,2.1,1.3,4.3,1.3,6.5l-0.2-0.4
	c0.7,0.5,1.2,1.1,1.6,1.7c0.4,0.7,0.6,1.4,0.7,2.2c0.2,1.5,0,3-0.4,4.4l-0.1,0.2l-0.2,0.1c-0.6,0.3-1.1,0.4-1.6,0.5
	c-0.5,0.1-1.1,0.2-1.6,0.3c-1.1,0.2-2.1,0.3-3.2,0.4c-2.1,0.2-4.2,0.4-6.4,0.4c-2.1,0-4.3-0.1-6.4-0.2c-2.1-0.2-4.2-0.5-6.3-0.9
	l-0.1,0l-0.1,0c-0.7-0.4-1.1-1.1-1.3-1.7c-0.2-0.6-0.3-1.3-0.4-1.9c-0.1-1.3,0-2.5,0.2-3.8l0,0.1c0-0.8,0.2-1.5,0.5-2.2
	c0.3-0.7,0.7-1.3,1.2-1.8c0.2-0.3,0.5-0.5,0.7-0.8c0.1-0.1,0.2-0.3,0.3-0.3c0.1,0,0-0.1,0.1,0.2c0.1,0.1,0,0,0,0l0,0
	c0.1,0.1,0,0,0,0l0,0l-0.1-0.1c-0.6-0.3-1.2-0.5-1.9-0.7l-0.2,0l0-0.1c-0.2-0.5-0.2-0.9-0.2-1.3c0-0.4-0.1-0.8-0.1-1.2
	c0-0.8,0-1.7,0-2.5c0-1.7,0-3.3,0.1-5c0.1-1.6,0.1-3.3,0.2-4.9C105.3,342.6,105.4,341,105.6,339.3z"/>
<path fill="#474747" d="M122.5,353.9c-1.2-0.5-2.4-0.9-3.5-0.9c-1.2,0-2.3,0.3-3.5,0.8c0.4-0.6,0.9-1,1.5-1.3c0.6-0.3,1.3-0.5,2-0.5
	c0.7,0,1.4,0.2,2,0.5C121.6,352.8,122.2,353.3,122.5,353.9z"/>
<path fill="#474747" d="M122.1,351.6c-0.7-0.2-1.3-0.3-1.9-0.5c-0.6-0.1-1.3-0.3-1.9-0.3c-1.2-0.1-2.4-0.1-3.5,0.8
	c0.2-0.7,0.8-1.3,1.5-1.6c0.7-0.3,1.5-0.3,2.2-0.3c0.7,0.1,1.4,0.3,2,0.6C121,350.7,121.6,351.1,122.1,351.6z"/>
<path fill="#474747" d="M121.6,349.1c-1.3-0.1-2.6-0.3-3.8-0.4c-0.6,0-1.2,0-1.8,0.1c-0.6,0.1-1.2,0.3-1.8,0.6
	c0.3-0.6,0.9-1.1,1.6-1.3c0.7-0.3,1.4-0.3,2.1-0.3c0.7,0,1.4,0.2,2,0.4C120.5,348.3,121.1,348.6,121.6,349.1z"/>
<path fill="#474747" d="M114.7,344.3c0.2,0.1,0.4,0.3,0.5,0.5c0.1,0.2,0.2,0.5,0.3,0.7c0.2,0.5,0.3,0.9,0.4,1.4
	c0.2,0.9,0.4,1.9,0.7,2.8c0.4,1.9,0.9,3.7,1.3,5.6c-1.2-1.6-1.9-3.5-2.3-5.4c-0.2-1-0.4-1.9-0.4-2.9l-0.1-1.4c0-0.2,0-0.5-0.1-0.7
	C115,344.7,114.9,344.4,114.7,344.3z"/>
<path fill="#474747" d="M121,355.3c-0.2-0.9-0.5-1.7-0.7-2.6c-0.2-0.9-0.4-1.8-0.5-2.7c-0.1-0.9-0.2-1.8-0.2-2.7
	c0-0.9,0-1.9,0.4-2.7c0,0.9,0.2,1.8,0.4,2.7c0.2,0.9,0.3,1.8,0.4,2.6c0.1,0.9,0.2,1.8,0.3,2.7C121.1,353.5,121.2,354.4,121,355.3z"
	/>
<g id="XMLID_7_">
	<g>
		<path fill="#373737" d="M51,363.1c-1,0.5-0.9,6.8-0.9,6.8c-8.9,7.5-28.5,3.5-28.5,3.5c-0.5-5.8,1.6-5.4,1.6-5.4
			c-0.4-5.6,1.1-7.1,1.1-7.1c14.8-13.4,12.9-19.6,13.1-21l21.3,1.1c-0.9,4.7,0.8,17.5,0.8,17.5C59.5,363.5,52,362.6,51,363.1z"/>
	</g>
	<g>
	</g>
</g>
<path fill="#333333" d="M37.5,339.8c0,0.7,0,1.4,0,2.1c0,0.7-0.2,1.4-0.3,2c-0.3,1.3-0.9,2.6-1.5,3.8c-1.3,2.5-2.9,4.7-4.7,6.8
	c-1.8,2.1-3.7,4.1-5.7,6l-0.4,0.4l-0.2,0.2c0,0-0.1,0.1-0.1,0.1l-0.1,0.1c-0.2,0.2-0.3,0.5-0.4,0.8c-0.2,0.6-0.3,1.3-0.4,1.9
	c-0.2,1.3-0.2,2.7-0.1,4l0,0.5l-0.5-0.1c-0.2,0-0.6,0.2-0.7,0.6c-0.2,0.4-0.3,0.9-0.4,1.3c-0.1,1-0.1,2,0,3l-0.4-0.4
	c2.4,0.4,4.8,0.7,7.3,0.9c2.4,0.2,4.9,0.2,7.3,0c2.4-0.1,4.8-0.5,7.2-1.1c2.3-0.7,4.6-1.7,6.4-3.2l-0.2,0.3c0-1.5,0-3,0.2-4.5
	c0.1-0.8,0.1-1.5,0.6-2.3c0.1-0.1,0.2-0.2,0.3-0.3c0.1,0,0.1,0,0.1,0l0.1,0l0.2,0c0.2,0,0.4-0.1,0.6-0.1l1.1-0.1
	c1.4-0.1,2.9-0.3,4.2-0.8c0.6-0.3,1.2-0.7,1.6-1.2c0.4-0.5,0.6-1.2,0.6-1.9l0,0c-0.3-2.9-0.6-5.8-0.7-8.8c-0.1-1.5-0.1-2.9-0.1-4.4
	c0-1.5,0.1-2.9,0.4-4.4c-0.2,1.4-0.2,2.9-0.2,4.4c0,1.5,0.1,2.9,0.3,4.4c0.2,2.9,0.6,5.8,0.9,8.7l0,0v0c0,0.8-0.1,1.6-0.6,2.3
	c-0.4,0.7-1.1,1.2-1.8,1.5c-1.4,0.7-2.9,0.9-4.4,1l-1.1,0.1c-0.4,0-0.7,0.1-0.7,0.2c-0.3,0.5-0.4,1.3-0.4,2
	c-0.1,1.4-0.2,2.9-0.1,4.4l0,0.2l-0.2,0.1c-1.9,1.6-4.3,2.7-6.7,3.4c-2.4,0.7-4.9,1.1-7.4,1.2c-2.5,0.2-5,0.1-7.4-0.1
	c-2.5-0.2-4.9-0.5-7.4-1l-0.3-0.1l0-0.3c-0.1-1-0.1-2.1,0-3.2c0.1-0.5,0.2-1.1,0.5-1.6c0.3-0.5,0.8-1.1,1.7-1.1l-0.5,0.5
	c-0.1-1.4-0.1-2.8,0.1-4.2c0.1-0.7,0.3-1.4,0.5-2.1c0.1-0.3,0.3-0.7,0.5-1l0.1-0.1c0.1-0.1,0.1-0.1,0.1-0.1l0.2-0.2l0.4-0.3
	c2-1.8,4-3.7,5.8-5.8c1.8-2,3.5-4.2,4.8-6.6c0.7-1.2,1.2-2.4,1.6-3.7c0.2-0.7,0.3-1.3,0.4-2C37.5,341.2,37.4,340.5,37.5,339.8z"/>
<path fill="#474747" d="M33.8,354c0.5-0.6,1.1-1,1.8-1.3c0.7-0.3,1.4-0.5,2.2-0.5c0.8,0,1.6,0.2,2.2,0.7c0.6,0.5,1.1,1.1,1.3,1.8
	c-0.6-0.5-1.1-0.9-1.7-1.1c-0.6-0.3-1.2-0.4-1.8-0.4C36.5,353.2,35.2,353.6,33.8,354z"/>
<path fill="#474747" d="M35.4,351.4c0.6-0.4,1.2-0.7,1.9-0.8c0.7-0.2,1.4-0.3,2.1-0.3c0.7,0,1.5,0.2,2.1,0.6
	c0.7,0.4,1.1,1.2,1.1,1.9c-0.4-0.6-0.9-1-1.4-1.2c-0.6-0.2-1.2-0.3-1.8-0.3C38.1,351.2,36.8,351.4,35.4,351.4z"/>
<path fill="#474747" d="M36.6,349.1c0.6-0.3,1.3-0.5,1.9-0.7c0.7-0.1,1.4-0.1,2.1-0.1c0.7,0.1,1.4,0.3,2,0.7c0.6,0.4,1.1,1,1.2,1.7
	c-0.9-1-2.1-1.3-3.3-1.4C39.2,349.2,37.9,349.2,36.6,349.1z"/>
<path fill="#474747" d="M37.9,347.1c1.3-0.5,2.6-0.8,4-0.8c0.7,0.1,1.5,0.2,2.1,0.6c0.6,0.4,1.1,1.1,1.2,1.7c-0.5-0.5-1-0.8-1.6-1.1
	c-0.6-0.2-1.2-0.3-1.8-0.3c-0.6-0.1-1.3,0-1.9-0.1C39.3,347.3,38.6,347.3,37.9,347.1z"/>
<path fill="#474747" d="M45.2,346.3c-0.2,0.1-0.3,0.3-0.4,0.5c-0.1,0.2-0.2,0.4-0.2,0.6c-0.1,0.4-0.3,0.9-0.4,1.3
	c-0.3,0.9-0.7,1.7-1.3,2.5c-0.5,0.8-1.2,1.5-1.9,2.1c-0.7,0.6-1.5,1.1-2.4,1.4c1.3-1.3,2.5-2.5,3.5-4c0.5-0.7,0.9-1.5,1.4-2.3
	c0.2-0.4,0.4-0.8,0.7-1.2c0.1-0.2,0.3-0.4,0.4-0.6C44.8,346.5,45,346.3,45.2,346.3z"/>
<path fill="#474747" d="M35.5,354c0-0.8,0.4-1.5,0.7-2.2c0.3-0.7,0.7-1.4,1-2.1c0.4-0.7,0.7-1.3,1.1-2c0.4-0.7,0.8-1.3,1-2
	c0.2,0.8-0.1,1.6-0.3,2.4c-0.2,0.8-0.6,1.5-0.9,2.1c-0.4,0.7-0.8,1.3-1.2,2C36.5,352.8,36,353.3,35.5,354z"/>
<path fill="#474747" d="M24.7,369.5c2,0.1,3.9,0.3,5.8,0.4c1.9,0.1,3.8,0.2,5.8,0.2c1.9,0,3.8-0.2,5.7-0.5c1.9-0.3,3.7-0.9,5.4-1.8
	c-1.5,1.3-3.4,2.1-5.3,2.6c-1.9,0.5-3.9,0.7-5.9,0.7c-2,0-3.9-0.1-5.9-0.4C28.5,370.4,26.6,369.9,24.7,369.5z"/>
<path fill="#474747" d="M129.6,368.2c-0.4,0.3-0.9,0.4-1.3,0.5c-0.5,0.1-0.9,0.2-1.4,0.3c-0.9,0.2-1.9,0.3-2.8,0.4
	c-1.9,0.2-3.7,0.3-5.6,0.3c-1.9,0-3.7,0-5.6-0.2c-0.9-0.1-1.9-0.2-2.8-0.3c-0.9-0.2-1.9-0.3-2.7-0.8c0.9,0.2,1.8,0.3,2.8,0.3
	c0.9,0,1.9,0,2.8,0c1.9,0,3.7,0,5.6,0l5.6-0.1c0.9,0,1.9,0,2.8-0.1C127.8,368.5,128.7,368.5,129.6,368.2z"/>
<g id="XMLID_6_">
	<g>
		<path fill="#A7B3BE" d="M33.8,277.6c-0.3-1.5,0.3-51.5,0.8-55.3s6.6-28.5,6.6-28.5l57.5,2.8c0.8,4,6.3,26,9.7,38
			s6.8,42.3,6.8,42.3c0,0.2-0.1,0.3-0.2,0.5c-2.7,7.7-17.7,5.8-17.7,5.8c2.2,11.5,11.2,12,12.7,12.8c1.5,0.8,6-0.2,6-0.2
			c0.8-1.3,0.7-12.4,0.7-12.8c0.7,3.1,11.7,42,12.5,45c0.8,3,1,14.3,1,14.3c-2.7-1-28.2,0.7-28.2,0.7c0.5-7-9.5-64.2-9.7-68.3
			s-13.7-41-14.2-43.5s-6.5-14.3-9.2-14.5c-2.7-0.2-5.5,7-7.3,10.3c-1.8,3.3-5.7,39.2-5.7,43.1s1.8,25.8,3.2,29.1
			c1.3,3.3,4.3,43.7,1.2,46.5c-3.2,2.8-30-2.7-30-2.7c1.2-2.3-0.1-11.6,1.5-14.2c4.8-7.5,3.1-36.3,3.1-36.3c1.3,0.9,6.3,1.6,6.3,1.6
			c1.6-0.7,6.6-9.3,6.6-9.3c-2.3-1.3-7.1-5.8-8.7-6.9C37.4,276.9,33.8,277.6,33.8,277.6z"/>
	</g>
	<g>
	</g>
</g>
<path fill="#333333" d="M41.1,193.9c-1.7,6.8-3.3,13.7-4.9,20.6l-1.1,5.2c-0.2,0.9-0.4,1.7-0.5,2.6c-0.1,0.9-0.1,1.7-0.2,2.6
	c-0.1,3.5-0.2,7-0.2,10.6L34,256.5L33.9,267c0,3.5,0,7.1,0.1,10.5l-0.3-0.2c1.4-0.2,2.8-0.4,4.2-0.1c0.4,0.1,0.7,0.2,1,0.4
	c0.3,0.2,0.6,0.4,0.9,0.6l1.6,1.3c1,0.9,2.1,1.8,3.1,2.7c1.1,0.9,2.1,1.7,3.3,2.4l0.2,0.1l-0.1,0.2c-1,1.7-2,3.3-3,4.9
	c-0.5,0.8-1.1,1.6-1.6,2.4c-0.3,0.4-0.6,0.8-0.9,1.1c-0.3,0.4-0.6,0.7-1.2,1l-0.1,0l-0.1,0c-1.1-0.2-2.1-0.3-3.2-0.6
	c-0.5-0.1-1.1-0.2-1.6-0.4c-0.5-0.2-1.1-0.3-1.6-0.7l0.4-0.2c0.2,4.3,0.3,8.5,0.3,12.8c0,4.3-0.2,8.5-0.6,12.8
	c-0.2,2.1-0.5,4.3-1,6.3c-0.3,1-0.6,2.1-1,3.1c-0.2,0.5-0.5,1-0.8,1.5c-0.3,0.4-0.4,0.9-0.5,1.4c-0.4,2-0.4,4.2-0.4,6.3
	c0,1.1,0,2.1-0.1,3.2c-0.1,1.1-0.1,2.2-0.5,3.3l-0.2-0.5c6,1.2,12.1,2.2,18.2,2.9c3,0.3,6.1,0.6,9.1,0.4c0.7-0.1,1.5-0.2,2.1-0.5
	c0.5-0.2,0.7-1,0.9-1.7c0.3-1.5,0.4-3,0.5-4.5c0.3-6.1,0-12.3-0.3-18.4c-0.4-6.1-0.8-12.3-1.6-18.4c-0.1-0.8-0.2-1.5-0.4-2.3
	c-0.1-0.4-0.1-0.7-0.3-1.1c-0.1-0.4-0.2-0.8-0.3-1.2c-0.3-1.5-0.6-3.1-0.8-4.6c-0.4-3.1-0.7-6.1-1-9.2c-0.3-3.1-0.6-6.1-0.8-9.2
	c-0.1-1.5-0.2-3.1-0.3-4.6c0-1.6,0.2-3.1,0.3-4.7c0.6-6.1,1.2-12.3,2-18.4c0.8-6.1,1.5-12.2,2.8-18.3c0.2-0.8,0.3-1.5,0.7-2.3
	c0.4-0.7,0.7-1.4,1-2.1c0.7-1.4,1.3-2.8,2.1-4.1c0.8-1.3,1.6-2.7,2.9-3.8c0.3-0.3,0.7-0.5,1.2-0.6c0.1,0,0.2,0,0.4,0h0.1
	c0,0,0.1,0,0.1,0c0,0,0.1,0,0.2,0c0.3,0.1,0.5,0.2,0.7,0.3c0.8,0.5,1.3,1.1,1.8,1.7c2,2.5,3.5,5.2,4.9,8c0.7,1.4,1.4,2.8,1.9,4.3
	c0.4,1.5,0.9,2.9,1.4,4.4c4,11.6,8.2,23.2,11.8,35c0.4,1.5,0.9,2.9,1.1,4.6c0.1,1.5,0.4,3,0.6,4.6l1.4,9.1l2.9,18.2
	c0.9,6.1,1.9,12.2,2.8,18.3c0.4,3,0.9,6.1,1.2,9.2c0.2,1.5,0.4,3.1,0.5,4.6c0.1,1.5,0.3,3.1,0.2,4.7l-0.4-0.4
	c4.7-0.3,9.4-0.5,14.1-0.7c2.4-0.1,4.7-0.2,7.1-0.2c1.2,0,2.4,0,3.5,0c0.6,0,1.2,0,1.8,0.1c0.6,0,1.2,0.1,1.8,0.3l-0.5,0.3
	c0-2.5-0.1-5.1-0.3-7.6c-0.1-1.3-0.2-2.5-0.3-3.8c-0.1-1.3-0.3-2.5-0.7-3.7l-4.1-14.7l-4.1-14.7c-1.3-4.9-2.7-9.8-4-14.8l0.6-0.1
	c0,2.2,0,4.3,0,6.5c0,1.1-0.1,2.2-0.1,3.2c0,0.5-0.1,1.1-0.1,1.6c-0.1,0.6-0.1,1.1-0.4,1.7l0,0.1l-0.1,0c-1.1,0.2-2.1,0.4-3.2,0.5
	c-0.5,0-1.1,0.1-1.6,0c-0.3,0-0.6-0.1-0.8-0.1c-0.3-0.1-0.6-0.2-0.8-0.3c-0.9-0.3-2-0.6-3-1c-1-0.4-2-0.8-2.9-1.4
	c-1.8-1.1-3.4-2.7-4.5-4.6c-1.1-1.8-1.8-3.9-2.2-6l-0.1-0.3l0.4,0c1.7,0.2,3.4,0.2,5.1,0.2c1.7-0.1,3.4-0.2,5-0.6
	c1.6-0.4,3.3-0.9,4.6-1.8c1.4-0.9,2.5-2.3,2.9-3.9l0,0.1c-0.8-6.8-1.7-13.6-2.6-20.4c-1-6.8-2-13.5-3.6-20.2
	c-1.8-6.6-3.5-13.2-5.2-19.9c-1.7-6.6-3.3-13.3-4.8-20c1.5,6.7,3.3,13.3,5,19.9c1.7,6.6,3.5,13.2,5.3,19.8
	c1.6,6.7,2.7,13.4,3.7,20.2c1,6.8,1.9,13.6,2.8,20.3l0,0l0,0.1c-0.4,1.7-1.6,3.2-3,4.2c-1.4,1-3.1,1.6-4.8,1.9
	c-1.7,0.4-3.4,0.5-5.1,0.6c-1.7,0.1-3.4,0-5.1-0.2l0.3-0.3c0.4,2.1,1.1,4.1,2.1,5.8c1.1,1.8,2.5,3.3,4.3,4.4c0.9,0.5,1.8,1,2.8,1.3
	c1,0.4,2,0.6,3,1c0.9,0.5,1.9,0.4,3,0.4c1-0.1,2.1-0.2,3.1-0.5l-0.2,0.1c0.2-0.3,0.2-0.9,0.3-1.4c0.1-0.5,0.1-1.1,0.1-1.6
	c0.1-1.1,0.1-2.1,0.1-3.2c0-2.1,0.1-4.3,0-6.4l0-2.5l0.6,2.4c1.3,4.9,2.7,9.8,4,14.7l4.1,14.7l4.1,14.7c0.2,0.6,0.4,1.2,0.5,1.9
	c0.1,0.6,0.2,1.3,0.2,1.9c0.1,1.3,0.2,2.5,0.3,3.8c0.1,2.5,0.2,5.1,0.3,7.6l0,0.5l-0.5-0.2c-0.5-0.1-1.1-0.2-1.6-0.2
	c-0.6,0-1.2-0.1-1.7-0.1c-1.2,0-2.3,0-3.5,0c-2.3,0-4.7,0.1-7,0.2c-4.7,0.2-9.4,0.5-14.1,0.8l-0.4,0l0-0.4c0.1-1.5-0.1-3-0.3-4.5
	c-0.2-1.5-0.3-3.1-0.5-4.6c-0.4-3-0.8-6.1-1.3-9.1c-0.9-6.1-1.8-12.2-2.8-18.2l-2.9-18.2l-1.4-9.1c-0.2-1.5-0.5-3.1-0.6-4.6
	c-0.2-1.4-0.7-2.9-1.1-4.4c-3.6-11.7-7.9-23.3-11.8-35c-0.5-1.4-1-2.9-1.4-4.4c-0.5-1.4-1.1-2.8-1.8-4.2c-1.4-2.7-2.9-5.4-4.7-7.8
	c-0.5-0.6-1-1.1-1.5-1.5c-0.5-0.4-1-0.2-1.6,0.2c-1.1,0.9-1.9,2.2-2.6,3.5c-0.7,1.3-1.4,2.7-2.1,4.1c-0.3,0.7-0.7,1.4-1,2.1
	c-0.3,0.6-0.4,1.4-0.6,2.1c-1.2,6-2,12.1-2.8,18.2c-0.8,6.1-1.5,12.2-2,18.3c-0.1,1.5-0.3,3.1-0.3,4.6c0,1.5,0.1,3.1,0.2,4.6
	c0.2,3.1,0.5,6.1,0.8,9.2c0.3,3.1,0.6,6.1,1,9.2c0.2,1.5,0.4,3,0.8,4.5c0.1,0.4,0.2,0.7,0.3,1.1c0.2,0.4,0.2,0.8,0.3,1.2
	c0.1,0.8,0.3,1.5,0.4,2.3c0.8,6.1,1.2,12.3,1.5,18.4c0.3,6.2,0.5,12.3,0.2,18.5c-0.1,1.5-0.2,3.1-0.5,4.6c-0.1,0.4-0.2,0.8-0.4,1.2
	c-0.1,0.2-0.2,0.4-0.3,0.6c-0.1,0.2-0.4,0.3-0.6,0.4c-0.8,0.4-1.6,0.5-2.4,0.5c-3.1,0.2-6.2-0.1-9.3-0.4c-6.1-0.7-12.2-1.8-18.2-3
	l-0.4-0.1L30,343c0.4-0.9,0.4-2,0.5-3c0-1.1,0.1-2.1,0.1-3.2c0-2.1,0-4.3,0.4-6.4c0.1-0.5,0.3-1.1,0.6-1.6c0.3-0.4,0.5-0.9,0.7-1.4
	c0.4-1,0.7-2,1-3c0.5-2.1,0.8-4.2,1-6.3c0.5-4.2,0.6-8.5,0.6-12.7c0-4.3-0.1-8.5-0.3-12.8l0-0.6l0.5,0.3c0.4,0.3,0.9,0.4,1.4,0.6
	c0.5,0.2,1,0.3,1.6,0.4c1,0.2,2.1,0.4,3.2,0.6l-0.1,0c0.3-0.2,0.7-0.5,1-0.9c0.3-0.4,0.6-0.7,0.9-1.1c0.6-0.8,1.1-1.6,1.6-2.3
	c1-1.6,2-3.2,3-4.9l0.1,0.4c-1.2-0.7-2.3-1.6-3.4-2.4c-1.1-0.9-2.1-1.8-3.1-2.7l-1.6-1.3c-0.3-0.2-0.5-0.5-0.8-0.6
	c-0.3-0.2-0.6-0.3-0.9-0.3c-1.3-0.3-2.7-0.2-4,0.1l-0.3,0l0-0.2c-0.1-3.6,0-7.1,0-10.6l0.1-10.6l0.4-21.1c0.1-3.5,0.2-7,0.3-10.6
	c0-0.9,0.1-1.8,0.2-2.6c0.1-0.9,0.3-1.7,0.5-2.6l1.2-5.2C37.7,207.5,39.4,200.7,41.1,193.9z"/>
<g id="XMLID_5_">
	<g>
		<path fill="#E65C4C" d="M22,138.6c0.3-2.3,15.5-34.5,17-35.8s13.3-5.5,16-6.3s10.3-6.8,9.3-5.8c-3.4,3.5,8.1,11.5,8.1,11.5
			S91.6,95.8,88,90.9c-0.6-0.8,3.5,4,4.8,5.3s17.8,8.3,20,10.3s14.8,36.5,14.8,36.5c-9,7.8-18.8,6.3-18.8,6.3c0.8-1.8-4-14-5.3-13.3
			s-4,22-4,22.8s-0.5,15.3,0,16.3s3.2,23.7,2,24.8c-6.5,5.8-25,4.4-28.8,3.8c-5.4-1-32.7-3.7-35.2-7.2c-1-1.5,8.9-26.6,9.7-27.8
			s1.4-21.3,1.3-23.8c-0.3-3.6-1.8-11.3-1.8-11.3c-2.3,1.3-5,17-5.5,13.3S22,138.6,22,138.6z"/>
	</g>
	<g>
	</g>
</g>
<path fill="#333333" d="M64.2,90.8c0,0,0.1-0.1,0.1-0.1C64.4,90.7,64.3,90.7,64.2,90.8l-0.2,0l-0.4,0.3l-0.9,0.6L61,93.1
	c-1.2,0.8-2.3,1.6-3.5,2.4c-0.6,0.4-1.2,0.7-1.9,1c-0.7,0.3-1.4,0.4-2,0.7c-1.3,0.4-2.7,0.9-4,1.4c-2.7,1-5.3,2-7.9,3.1
	c-1.2,0.6-2.8,1-3.3,2.4c-0.7,1.2-1.4,2.5-2,3.7c-2.6,5.1-5,10.2-7.4,15.3c-1.2,2.6-2.4,5.1-3.5,7.7l-1.7,3.9
	c-0.5,1.3-1.2,2.6-1.5,3.9l-0.1-0.2c3,0.7,6,1.5,8.9,2.4c2.9,1,5.9,1.9,8.6,3.5c0.6,0.4,1.3,0.9,1.7,1.6c0.1,0.2,0.2,0.4,0.2,0.6
	c0,0.1,0,0.2,0.1,0.3c0,0.1,0.1,0.2,0,0.1c-0.2,0,0,0,0-0.1c0-0.1,0.1-0.1,0.1-0.2c0.1-0.2,0.1-0.3,0.2-0.5c0.5-1.4,0.9-2.9,1.3-4.4
	c0.4-1.5,0.8-3,1.3-4.4c0.2-0.7,0.5-1.5,0.8-2.2c0.2-0.4,0.3-0.7,0.5-1.1c0.2-0.3,0.4-0.7,0.8-1l0.3-0.2l0.1,0.3
	c0.4,2.1,0.8,4.3,1.1,6.5c0.2,1.1,0.3,2.2,0.5,3.3c0.1,1.1,0.2,2.2,0.2,3.3c0,4.4-0.2,8.7-0.4,13.1c-0.1,2.2-0.2,4.4-0.4,6.5
	c-0.1,0.5-0.1,1.1-0.2,1.6c-0.1,0.3-0.1,0.5-0.2,0.9c-0.1,0.2-0.2,0.5-0.3,0.7c-0.4,1-0.8,2-1.2,3c-1.6,4-3.2,8.1-4.6,12.2
	c-0.7,2.1-1.5,4.1-2.1,6.2c-0.3,1-0.6,2.1-0.9,3.1c-0.1,0.5-0.3,1-0.3,1.6c0,0.2-0.1,0.5,0,0.7c0,0.1-0.1-0.1,0,0
	c0,0,0.1,0.1,0.1,0.1c0.1,0.1,0.2,0.1,0.3,0.2c0.8,0.6,1.9,0.9,2.9,1.3c1,0.3,2.1,0.6,3.1,0.8c2.1,0.5,4.3,0.9,6.4,1.3
	c4.3,0.7,8.6,1.3,12.9,1.9l6.5,0.9c1.1,0.1,2.2,0.3,3.2,0.5c1.1,0.1,2.1,0.2,3.2,0.3c4.3,0.3,8.7,0.3,13-0.2
	c2.1-0.2,4.3-0.6,6.3-1.2c1-0.3,2-0.7,3-1.2c0.5-0.2,0.9-0.5,1.4-0.8c0.2-0.1,0.4-0.3,0.6-0.5l0.2-0.2l0-0.2c0.2-1,0.1-2.1,0.1-3.2
	c0-1.1-0.1-2.2-0.2-3.3c-0.1-2.2-0.3-4.3-0.6-6.5c-0.2-2.2-0.5-4.3-0.7-6.5c-0.1-1.1-0.3-2.2-0.4-3.2c-0.1-0.5-0.2-1.1-0.3-1.5
	c-0.1-0.4-0.1-0.6-0.1-0.9l0-0.8c-0.1-4.4,0.1-8.8,0.2-13.1l0.1-1.7l0.2-1.6l0.4-3.3c0.3-2.2,0.6-4.3,1-6.5c0.3-2.2,0.7-4.3,1.1-6.5
	c0.2-1.1,0.4-2.1,0.7-3.2c0.1-0.3,0.1-0.5,0.2-0.8c0.1-0.3,0.2-0.5,0.4-0.9c0.1-0.1,0.2-0.2,0.4-0.2c0.2,0,0.2,0.1,0.3,0.1
	c0.2,0.1,0.3,0.2,0.4,0.3c0.2,0.2,0.4,0.5,0.5,0.7c1.2,1.9,2,4,2.7,6c0.4,1,0.7,2.1,1,3.1c0.1,0.5,0.3,1.1,0.4,1.6
	c0.1,0.6,0.2,1.1,0,1.8l-0.2-0.4c1.6,0.2,3.3,0.1,5-0.1c1.7-0.2,3.3-0.6,4.9-1.1c3.2-1.1,6.1-2.8,8.7-5l-0.1,0.3
	c-2.6-7.1-5.2-14.1-7.9-21.2c-1.4-3.5-2.7-7-4.2-10.5c-0.4-0.9-0.8-1.7-1.2-2.6c-0.2-0.4-0.4-0.8-0.6-1.3c-0.2-0.4-0.4-0.8-0.8-1.1
	c-1.5-1.1-3.2-1.9-4.9-2.7c-3.4-1.7-6.8-3.3-10.2-4.9L95,97.5c-0.4-0.2-0.8-0.4-1.3-0.7c-0.4-0.2-0.8-0.4-1.2-0.8
	c-1.3-1.4-2.5-2.8-3.8-4.2l-0.5-0.5L88.1,91L88,90.9l-0.1-0.1c-0.1,0,0.1,0,0.1-0.1l0,0l0,0c0.3,0.4,0.5,0.9,0.5,1.3
	c0,1-0.5,1.9-1.2,2.6c-1.3,1.4-2.9,2.4-4.6,3.3c-3.3,1.8-6.8,3.2-10.4,4.4l0,0l0,0c-2.1-1.5-4.1-3.1-5.8-4.9c-0.9-0.9-1.7-1.9-2.3-3
	c-0.3-0.6-0.5-1.2-0.6-1.8C63.6,92,63.8,91.3,64.2,90.8z M64.2,90.8c-0.4,0.5-0.6,1.1-0.6,1.8c0.1,0.6,0.3,1.2,0.6,1.8
	c0.6,1.1,1.4,2.1,2.3,3c1.8,1.8,3.8,3.4,5.8,4.9l0,0c3.6-1.2,7.1-2.6,10.4-4.4c1.6-0.9,3.3-1.9,4.5-3.3c0.6-0.7,1.2-1.5,1.1-2.5
	c0-0.5-0.2-0.9-0.5-1.3l0,0l0,0c0-0.1,0.2-0.1,0.1-0.1l0.1,0.1l0.1,0.1l0.2,0.3l0.5,0.5c1.3,1.4,2.5,2.8,3.8,4.2
	c0.3,0.3,0.7,0.5,1.1,0.8c0.4,0.2,0.8,0.4,1.2,0.7l2.5,1.2c3.4,1.6,6.8,3.2,10.2,4.8c1.7,0.9,3.4,1.6,5,2.8c0.4,0.3,0.6,0.8,0.8,1.2
	c0.2,0.4,0.4,0.8,0.7,1.3c0.4,0.8,0.8,1.7,1.2,2.6c1.5,3.5,2.9,7,4.3,10.5c2.8,7,5.4,14.1,8,21.1l0.1,0.2l-0.1,0.1
	c-2.6,2.2-5.6,4-8.8,5.1c-1.6,0.6-3.3,0.9-5,1.2c-1.7,0.2-3.4,0.3-5.1,0.1l-0.3,0l0.1-0.4c0.1-0.4,0-1-0.1-1.5
	c-0.1-0.5-0.2-1-0.4-1.6c-0.3-1-0.6-2.1-1-3.1c-0.8-2-1.6-4.1-2.7-5.9c-0.1-0.2-0.3-0.4-0.5-0.6c-0.1-0.1-0.2-0.2-0.2-0.2
	c0,0-0.1,0,0,0c0.1,0,0,0,0.1,0c-0.1,0.1-0.2,0.4-0.3,0.6c-0.1,0.2-0.2,0.5-0.2,0.8c-0.3,1-0.5,2.1-0.7,3.2
	c-0.4,2.1-0.8,4.3-1.1,6.4c-0.3,2.2-0.6,4.3-0.9,6.5l-0.4,3.2l-0.2,1.6l0,1.6c-0.1,4.4-0.2,8.7-0.1,13.1l0,0.8
	c0,0.2,0.1,0.6,0.1,0.7c0.2,0.6,0.3,1.1,0.4,1.7c0.2,1.1,0.3,2.2,0.5,3.3c0.3,2.2,0.5,4.3,0.8,6.5c0.2,2.2,0.4,4.4,0.6,6.5
	c0.1,1.1,0.1,2.2,0.2,3.3c0,1.1,0.1,2.2-0.1,3.4c0,0.1,0,0.2-0.1,0.3c0,0-0.1,0.3-0.2,0.3c0,0,0,0-0.1,0.1l0,0l-0.1,0.1l-0.2,0.1
	c-0.2,0.2-0.5,0.4-0.7,0.5c-0.5,0.3-1,0.6-1.5,0.9c-1,0.5-2.1,0.9-3.1,1.2c-2.1,0.6-4.3,1-6.5,1.3c-4.4,0.5-8.8,0.5-13.2,0.2
	c-1.1-0.1-2.2-0.2-3.3-0.3c-1.1-0.2-2.1-0.4-3.2-0.5l-6.5-0.9c-4.3-0.6-8.7-1.2-13-2c-2.2-0.4-4.3-0.8-6.4-1.3
	c-1.1-0.3-2.1-0.5-3.2-0.9c-1.1-0.4-2.1-0.7-3.1-1.4c-0.1-0.1-0.2-0.2-0.4-0.3c-0.1-0.1-0.1-0.1-0.1-0.2c0,0-0.2-0.2-0.2-0.3
	c-0.1-0.4,0-0.7,0-1c0.1-0.6,0.2-1.1,0.4-1.6c0.3-1.1,0.6-2.1,0.9-3.2c0.7-2.1,1.4-4.1,2.1-6.2c1.5-4.1,3.1-8.2,4.7-12.2
	c0.4-1,0.8-2,1.3-3c0.1-0.2,0.2-0.5,0.4-0.8c0.1-0.1,0.1-0.5,0.2-0.7c0.1-0.5,0.1-1.1,0.2-1.6c0.2-2.2,0.3-4.3,0.5-6.5
	c0.2-4.4,0.4-8.7,0.4-13.1c0-1.1,0-2.1-0.2-3.2c-0.1-1.1-0.3-2.2-0.5-3.2c-0.3-2.2-0.7-4.3-1.1-6.4l0.4,0.2
	c-0.5,0.3-0.9,1.1-1.2,1.8c-0.3,0.7-0.6,1.4-0.8,2.1c-0.5,1.5-0.9,2.9-1.3,4.4c-0.4,1.5-0.8,3-1.3,4.4c-0.1,0.2-0.1,0.4-0.2,0.6
	c0,0.1-0.1,0.2-0.2,0.3c0,0-0.1,0.1-0.1,0.1c-0.1,0-0.1,0.1-0.3,0.1c-0.3-0.1-0.2-0.3-0.3-0.4c0-0.1,0-0.2-0.1-0.3
	c0-0.2-0.1-0.3-0.2-0.5c-0.3-0.6-1-1.1-1.6-1.5c-2.6-1.6-5.5-2.6-8.5-3.5c-2.9-0.9-5.9-1.7-8.9-2.4l-0.2,0l0-0.1
	c0.4-1.4,1-2.7,1.5-4l1.7-3.9c1.2-2.6,2.4-5.2,3.6-7.7c2.4-5.1,4.9-10.2,7.5-15.3c0.7-1.3,1.3-2.5,2-3.7c0.2-0.3,0.4-0.6,0.6-0.9
	c0.2-0.3,0.6-0.5,0.9-0.6c0.6-0.3,1.3-0.6,1.9-0.9c2.6-1.1,5.3-2.1,7.9-3.1c1.3-0.5,2.7-0.9,4-1.4c0.7-0.2,1.4-0.4,2-0.6
	c0.7-0.3,1.3-0.6,1.9-1c1.2-0.7,2.4-1.5,3.5-2.3l1.7-1.2l0.9-0.6l0.4-0.3l0.2-0.1c0,0,0.1-0.1,0.1,0C64.3,90.8,64.3,90.8,64.2,90.8z
	"/>
<path fill="#D23D2D" d="M104.7,133.3c-0.1-2.1-0.1-4.1,0.1-6.2c0.2-2.1,0.9-4.1,1.7-6c0.8-1.9,1.7-3.8,2.6-5.6
	c0.9-1.8,1.9-3.7,2.9-5.5c-0.8,1.9-1.7,3.8-2.5,5.7c-0.9,1.9-1.8,3.7-2.5,5.6c-0.8,1.9-1.4,3.8-1.8,5.9
	C104.9,129.2,104.9,131.3,104.7,133.3z"/>
<path fill="#D23D2D" d="M39.7,104.7c1.4,1.7,2.7,3.7,3.5,5.8c0.9,2.1,1.4,4.3,1.7,6.6c0.3,2.3,0.4,4.5,0.4,6.8
	c0,1.1,0.1,2.3,0.1,3.4c0.1,1.1,0.2,2.2,0.5,3.3c-0.7-2.1-0.9-4.4-1-6.7c-0.1-2.3-0.2-4.5-0.5-6.7c-0.3-2.2-0.8-4.4-1.6-6.5
	C42.1,108.5,41,106.5,39.7,104.7z"/>
<path fill="#333333" d="M62.8,206.3c1.7,0.7,3.4,1.2,5.2,1.5c1.8,0.3,3.6,0.5,5.4,0.3l-0.1,0.5c-0.8-0.5-1.8-0.8-2.8-0.8
	c-0.5,0-0.9,0.2-1.3,0.5c-0.4,0.3-0.6,0.7-0.8,1.1c-0.4,0.9-0.5,1.9-0.5,2.9c0,1,0.1,2,0.2,3c-0.2-1-0.4-2-0.4-3c0-1,0-2.1,0.4-3.1
	c0.2-0.5,0.5-1,0.9-1.3c0.4-0.4,1-0.5,1.5-0.6c1.1,0,2.1,0.3,3.1,0.9l0.7,0.4l-0.8,0c-1.8,0.1-3.7-0.1-5.5-0.5
	C66.1,207.7,64.4,207.1,62.8,206.3z"/>
<path fill="#474747" d="M121.6,347c-1.5-0.2-2.8-0.5-4.2-0.6c-1.3-0.1-2.6-0.1-4,0.6c0.4-0.6,1-1.1,1.8-1.4c0.7-0.3,1.5-0.3,2.3-0.2
	C119.1,345.6,120.5,346.1,121.6,347z"/>
<g id="XMLID_4_">
	<g>
		<path fill="#D9B08C" d="M51.4,80.6c0,0-7.6-0.4-2.2-56.6c0,0,6-18.3,28.8-4.1c0,0,26.1-1.5,19.6,28.7c0,0,6.9-3.7,9.4,0
			c2.5,3.7,4.3,12.8-9.4,18.7c0,0-2.2,9.1-6.5,11.5C86.7,81.2,67.6,83.9,51.4,80.6z"/>
	</g>
	<g>
	</g>
</g>
<path fill="#B89475" d="M63.6,62c4.9,4.4,0,8.4,3.7,8.9C77.5,72.3,88.4,58.8,91,59.7c2.7,0.8,5.8,3.1,6.4,5.8
	c0.5,2.2-2.2,11.2-6.4,13.4C87,81,61.3,85,50.3,79.2c-1.9-1-3.4-15.4-2.9-15.7C49,62.5,62,60.5,63.6,62z"/>
<path fill="#333333" d="M97.6,48.6c1.3-0.7,2.6-1.2,4-1.5c1.4-0.3,2.9-0.4,4.2,0.4c0.6,0.3,1.1,0.9,1.5,1.6c0.4,0.6,0.7,1.3,0.9,2
	c0.5,1.4,0.7,2.8,0.5,4.3c-0.2,2.9-1.8,5.6-3.9,7.6c-2.1,2-4.7,3.4-7.3,4.6l0.1-0.1c-0.6,2.2-1.3,4.3-2.3,6.3c-1,2-2.2,4-4.2,5.2
	c-1,0.6-2.1,0.9-3.2,1.2c-1.1,0.3-2.2,0.5-3.3,0.7c-2.2,0.4-4.4,0.7-6.6,0.9c-4.5,0.4-8.9,0.6-13.4,0.5c-4.5-0.1-8.9-0.6-13.3-1.5
	l0,0c-0.4-0.1-0.6-0.3-0.9-0.6c-0.2-0.2-0.4-0.5-0.6-0.8c-0.3-0.5-0.6-1.1-0.8-1.7c-0.4-1.1-0.7-2.3-0.9-3.5
	c-0.5-2.4-0.7-4.8-0.9-7.2c-0.3-4.8-0.4-9.6-0.2-14.4c0.3-9.6,1-19.2,1.9-28.7l0,0l0,0c1-2.7,2.8-5.1,5-6.9c2.3-1.8,5.1-2.7,8-2.8
	c2.9-0.1,5.7,0.6,8.4,1.6c2.7,1,5.2,2.3,7.6,3.8l-0.1,0c3.5-0.1,7,0.6,10.2,2c3.2,1.4,6,3.7,7.8,6.7c1.8,3,2.6,6.5,2.7,9.9
	C98.8,41.8,98.3,45.2,97.6,48.6z M97.6,48.6c0.7-3.4,1.1-6.8,1-10.3c-0.2-3.4-1-6.9-2.8-9.8c-1.8-3-4.6-5-7.7-6.4
	c-3.2-1.4-6.6-1.7-10-1.7h0l0-0.2c-2.4-1.5-4.9-2.9-7.6-3.9c-2.6-1-5.4-1.7-8.2-1.6c-2.8,0.1-5.6,1-7.8,2.7
	c-2.2,1.7-3.9,4.1-4.9,6.7l0,0c-0.9,9.6-1.6,19.1-1.9,28.7c-0.1,4.8-0.1,9.6,0.2,14.4c0.2,2.4,0.4,4.8,0.9,7.1
	c0.2,1.2,0.5,2.3,0.9,3.4c0.2,0.6,0.4,1.1,0.7,1.6c0.1,0.2,0.3,0.5,0.5,0.7c0.2,0.2,0.4,0.4,0.6,0.4l0.2,0l-0.2,0
	c4.4,0.9,8.8,1.3,13.3,1.5c4.5,0.2,8.9,0,13.4-0.4c2.2-0.2,4.4-0.5,6.6-0.9c1.1-0.2,2.2-0.4,3.3-0.7c1.1-0.3,2.1-0.6,3.1-1.2
	c1.9-1.1,3.1-3.1,4.1-5.1c1-2,1.7-4.1,2.3-6.3l0-0.1l0.1,0c2.6-1.1,5.2-2.6,7.3-4.5c2.1-1.9,3.6-4.5,3.9-7.4
	c0.1-1.4-0.1-2.9-0.5-4.2c-0.2-0.7-0.5-1.3-0.9-2c-0.4-0.6-0.8-1.2-1.4-1.5c-1.3-0.7-2.8-0.6-4.2-0.4
	C100.2,47.4,98.9,47.9,97.6,48.6z"/>
<path fill="#333333" d="M94.7,65.8c-0.8,2.5-2.5,4.7-4.4,6.4c-2,1.7-4.4,3-6.8,3.9c-2.5,0.9-5.1,1.4-7.7,1.7
	c-2.6,0.3-5.2,0.3-7.9,0.1c2.6,0,5.2-0.1,7.8-0.5c2.6-0.4,5.1-0.9,7.6-1.8c2.4-0.9,4.8-2.1,6.8-3.8c1-0.8,1.9-1.7,2.7-2.8
	C93.5,68.2,94.2,67.1,94.7,65.8z"/>
<g id="XMLID_3_">
	<g>
		<path fill="#A7B3BE" d="M54.2,36.6C71.9,34.1,78,39.2,78,39.2c-1.9,6.4,1.9,9.1-12.3,9.1C51.7,48.3,54.2,36.6,54.2,36.6z"/>
	</g>
	<g>
	</g>
</g>
<path fill="#333333" d="M78,39.2c-1.7-1.2-3.7-1.8-5.6-2.2c-2-0.4-4-0.7-6-0.8c-4.1-0.2-8.1,0.1-12.1,0.6l0.2-0.2
	c-0.5,3,0.1,6.4,2.3,8.5c1.1,1.1,2.5,1.8,4,2.3c1.5,0.4,3,0.6,4.6,0.7c1.6,0,3.1,0,4.7-0.1c1.6-0.1,3.1-0.2,4.6-0.7
	c0.7-0.3,1.4-0.6,1.8-1.3c0.4-0.6,0.6-1.4,0.7-2.2C77.4,42.3,77.5,40.7,78,39.2z M78,39.2c-0.4,1.5-0.6,3.1-0.7,4.6
	c-0.1,0.8-0.2,1.6-0.7,2.3c-0.4,0.7-1.2,1.1-1.9,1.4c-1.5,0.5-3.1,0.7-4.7,0.8c-1.6,0.1-3.1,0.2-4.7,0.1c-1.6,0-3.2-0.2-4.7-0.6
	c-1.5-0.4-3-1.2-4.2-2.3c-1.2-1.1-1.9-2.6-2.3-4.2c-0.4-1.6-0.4-3.2-0.1-4.8l0-0.2l0.2,0c4-0.6,8.1-0.8,12.2-0.5
	c2,0.2,4.1,0.4,6,0.9C74.4,37.3,76.4,38,78,39.2z"/>
<g id="XMLID_2_">
	<g>
		<path fill="#A7B3BE" d="M44.1,41.1c0-1.4,6.5-6,6.5-4c-0.2,5.8,0.3,10.7-4.2,12.2S44.1,42.5,44.1,41.1z"/>
	</g>
	<g>
	</g>
</g>
<path fill="#333333" d="M50.5,37.1c0-0.2-0.1-0.4-0.2-0.4c-0.2-0.1-0.3-0.1-0.5,0c-0.3,0.1-0.7,0.2-1,0.3c-0.6,0.3-1.2,0.7-1.7,1
	c-0.6,0.4-1.1,0.8-1.6,1.3c-0.5,0.5-1,1-1.3,1.5c-0.2,1.3-0.4,2.7-0.5,4c-0.1,0.7-0.1,1.3,0,2c0.1,0.7,0.2,1.3,0.5,1.8
	c0.3,0.5,0.9,0.6,1.6,0.5c0.3-0.1,0.6-0.2,0.9-0.3c0.3-0.1,0.6-0.3,0.9-0.5c1.1-0.7,1.8-1.9,2.2-3.2C50.5,42.5,50.4,39.8,50.5,37.1z
	 M50.5,37.1l0,4.1c0,1.4-0.1,2.7-0.4,4.1c-0.3,1.3-1,2.7-2.2,3.5c-0.3,0.2-0.6,0.4-0.9,0.5c-0.3,0.1-0.6,0.3-1,0.3
	c-0.4,0.1-0.7,0.1-1.1,0c-0.4-0.1-0.7-0.4-0.9-0.7c-0.4-0.6-0.5-1.4-0.6-2.1c0-0.7,0-1.4,0.1-2.1c0.2-1.4,0.4-2.7,0.7-4.1
	c0.4-0.6,0.9-1.1,1.4-1.5c0.5-0.4,1.1-0.8,1.6-1.2c0.6-0.4,1.2-0.7,1.8-1c0.3-0.1,0.6-0.3,1-0.3c0.2,0,0.3,0,0.5,0
	C50.5,36.7,50.5,36.9,50.5,37.1z"/>
<path fill="#333333" d="M78,34l-4.7-1.1c-1.5-0.3-3.1-0.7-4.6-1c-1.6-0.3-3.1-0.5-4.7-0.6c-1.6-0.1-3.1-0.1-4.7,0.3
	c1.4-0.7,3.1-1,4.7-1.1c1.6-0.1,3.3,0.1,4.8,0.4C72.1,31.5,75.2,32.5,78,34z"/>
<g id="XMLID_1_">
	<g>
		<path fill="#3C2415" d="M44.7,56.4c0,0-6.3-14.3-3.7-23.7l2.5-7.9l9.8-12.2L87,13.9l13.5,16.5l-0.8,14.5c0,0-3.7,14.8-5.2,16.7
			c0,0-2.3-1.8-3.5-1.8c0,0,2-5.2-3.2-13.7c0,0-0.7,5.5-1,7.2c0,0-15.8-28.7-20-31c0,0,0.2,10.8-17.3,19.7c0,0,3.7-7.3,3.7-9.2
			C53.2,32.7,45.5,33.4,44.7,56.4z"/>
	</g>
	<g>
	</g>
</g>
<path fill="#333333" d="M99.7,44.8c-0.7,2.8-1.4,5.7-2.2,8.5c-0.4,1.4-0.8,2.8-1.2,4.2c-0.2,0.7-0.5,1.4-0.7,2.1
	c-0.3,0.7-0.5,1.4-0.9,2l-0.1,0.1l-0.1-0.1c-0.5-0.4-1.1-0.8-1.6-1.1c-0.6-0.3-1.2-0.7-1.8-0.7l-0.2,0l0.1-0.2
	c0.4-1.1,0.4-2.3,0.3-3.5c-0.1-1.2-0.3-2.4-0.6-3.5c-0.6-2.3-1.7-4.5-2.9-6.5L88,46l-0.5,3.6c-0.2,1.2-0.3,2.4-0.5,3.6l-0.1,0.5
	l-0.2-0.4c-3-5.4-6.1-10.7-9.3-16c-1.6-2.6-3.2-5.2-4.9-7.8c-0.9-1.3-1.7-2.5-2.7-3.8c-0.5-0.6-0.9-1.2-1.4-1.8
	c-0.5-0.6-1-1.2-1.6-1.5l0.4-0.2c-0.1,2.4-1,4.6-2.1,6.6c-1.1,2-2.6,3.8-4.2,5.5c-3.2,3.3-7.1,5.8-11.2,7.8l-0.5,0.3l0.3-0.5
	c0.7-1.5,1.4-3,2.1-4.5c0.3-0.8,0.6-1.5,0.9-2.3c0.3-0.8,0.6-1.6,0.6-2.3l0.2,0.2c-1,0.2-1.9,0.9-2.6,1.7c-0.7,0.8-1.4,1.7-1.9,2.6
	c-1,1.9-1.7,4-2.2,6.1c-1,4.3-1.4,8.7-1.6,13l0,0.6l-0.2-0.5c-1.6-3.8-2.8-7.7-3.5-11.6c-0.4-2-0.6-4-0.7-6c0-2,0.1-4.1,0.7-6
	c-0.5,2-0.7,4-0.6,6c0.1,2,0.4,4,0.8,6c0.4,2,0.9,3.9,1.5,5.9c0.6,1.9,1.3,3.8,2.1,5.7l-0.3,0c0.2-4.4,0.6-8.8,1.6-13.1
	c0.5-2.1,1.2-4.3,2.3-6.2c0.5-1,1.1-1.9,1.9-2.7c0.8-0.8,1.7-1.5,2.9-1.8l0.2,0l0,0.2c-0.1,0.9-0.4,1.7-0.6,2.4
	c-0.3,0.8-0.6,1.5-0.9,2.3c-0.7,1.5-1.4,3-2.1,4.5l-0.3-0.3c4-2.1,7.9-4.6,11.1-7.8c1.6-1.6,3-3.4,4.1-5.4c1.1-2,1.9-4.1,2-6.3
	l0-0.4L67,22c0.7,0.4,1.2,1,1.7,1.6c0.5,0.6,1,1.2,1.4,1.8c0.9,1.2,1.8,2.5,2.7,3.8c1.7,2.6,3.3,5.2,4.9,7.8
	c3.2,5.3,6.3,10.6,9.2,16l-0.3,0c0.2-1.2,0.4-2.4,0.5-3.6l0.5-3.6l0.1-0.4l0.2,0.4c1.2,2.1,2.3,4.3,2.9,6.6c0.3,1.2,0.5,2.4,0.6,3.6
	c0.1,1.2,0,2.4-0.4,3.6L91,59.6c0.4,0,0.7,0.1,1,0.3c0.3,0.1,0.6,0.3,0.9,0.5c0.6,0.3,1.1,0.7,1.7,1.1l-0.1,0
	c0.4-0.6,0.7-1.3,0.9-1.9c0.3-0.7,0.5-1.4,0.7-2.1c0.5-1.4,0.9-2.8,1.3-4.2C98.2,50.5,98.9,47.7,99.7,44.8z"/>
<path fill="#D9B08C" d="M51,58c-2.1-0.5-5.6-1.3-6.6-4c-0.8-2.2,7.4-11,7.4-11L51,58z"/>
<path fill="#333333" d="M51.8,43c-1.1,1.4-2.3,2.8-3.4,4.2c-1.1,1.4-2.2,2.8-3,4.4c-0.2,0.4-0.4,0.8-0.6,1.2
	c-0.2,0.4-0.3,0.8-0.2,1.2c0.3,0.8,0.8,1.5,1.5,2c1.4,1.1,3.2,1.6,4.9,2.1c-1.8-0.3-3.6-0.7-5.1-1.8c-0.8-0.5-1.4-1.3-1.7-2.2
	c-0.2-0.6,0-1,0.2-1.5c0.2-0.4,0.4-0.8,0.6-1.2c0.9-1.6,2-3,3.2-4.4C49.3,45.6,50.5,44.2,51.8,43z"/>
<path fill="#333333" d="M61.5,64.5c-1.8,1.5-4,2.5-6.3,2.9c-2.3,0.4-4.7,0.3-6.9-0.5c2.3,0,4.5,0,6.7-0.5c1.1-0.2,2.2-0.5,3.2-0.8
	C59.4,65.3,60.4,64.9,61.5,64.5z"/>
<path fill="#32241B" d="M65.2,77.8c0,0-13.4,0.8-15.5-2.5c0,0-1.6,5.2-1.4,6.2S60.2,81.4,65.2,77.8z"/>
<polygon fill="#FFFFFF" points="57.3,126.7 57.7,128.5 54.7,129.9 "/>
<polygon fill="#FFFFFF" points="55.2,131.1 58.7,129.4 59.1,129.2 58.3,125.2 57.1,119.9 65.8,131.1 "/>
<polygon fill="#FFFFFF" points="58.1,119.1 61.6,120.8 62,121 68,113.6 64.6,127.5 "/>
<polygon fill="#FFFFFF" points="69.2,113.9 70,117.6 70.1,118 79.6,118 66.7,124.2 "/>
<polygon fill="#FFFFFF" points="79,122.5 81.1,119.9 80.1,123.9 "/>
<polygon fill="#FFFFFF" points="58.7,118 62.8,118 61.6,119.5 "/>
<polygon fill="#FFFFFF" points="73.1,126.4 82.6,131.1 78.3,131.1 76.1,140.3 "/>
<polygon fill="#FFFFFF" points="79.3,132.3 82.6,132.3 78.9,134.1 "/>
<polygon fill="#FFFFFF" points="70.2,139.6 71.9,138.8 73.9,141.4 "/>
<polygon fill="#FFFFFF" points="63.6,136.8 63.7,136.4 59.1,134.2 59.1,134.2 55.2,132.3 69.4,132.3 62.7,140.4 "/>
<polygon fill="#FFFFFF" points="71,132.3 71,132.3 71.2,132.1 72.7,130.2 74.9,140.6 72.2,137.2 68.3,139.1 63.5,141.4 "/>
<polygon fill="#FFFFFF" points="70.5,123.8 80.1,119.1 77.4,122.5 83.2,129.9 "/>
<polygon fill="#FFFFFF" points="67.4,131.1 65.6,128.7 66.3,125.8 69,124.4 71.7,125.8 72.3,128.7 70.4,131.1 "/>
<polygon fill="#FFFFFF" points="71.1,116.8 70.4,113.6 72.9,116.8 "/>
<polygon fill="#FFFFFF" points="60.6,136.3 62.2,137.1 61.5,140.3 "/>
<path fill="#4C4C4C" d="M116.1,51.9c1.5,1.2,12.7-21.1,9.6-29.6c-3.1-8.4-37-39.3-88.3-9.5c-2.2,1.3,0.9,7,4.2,9.3
	C41.6,22.2,77.9,22.7,116.1,51.9z"/>
<polygon fill="#333333" points="121.1,44.3 121.1,44.3 121.1,44.3 "/>
<path fill="#333333" d="M126.2,26.2c0-0.1,0-0.2,0-0.3l-0.1,0.2L126.2,26.2z"/>
<path fill="#333333" d="M124.2,36.3c0.1-0.3,0.2-0.7,0.3-1L124,36L124.2,36.3z"/>
<path fill="#333333" d="M125.5,31.8c0.1-0.4,0.2-0.8,0.3-1.2l-1-1.2l1.3-1.7l-1.3-1.7l1.3-1.7l-1.3-1.7l0.7-0.8
	c-0.1-0.2-0.2-0.4-0.3-0.6l-1.1,1.5l1.3,1.7L124,26l1.3,1.7l-1.3,1.7l1.3,1.7l-1.3,1.7l1,1.2c0.1-0.3,0.1-0.5,0.2-0.8l-0.4-0.5
	L125.5,31.8z"/>
<path fill="#333333" d="M123.6,38.1c0.1-0.2,0.2-0.4,0.2-0.6l-1.2-1.5l1.3-1.7l-1.3-1.7L124,31l-1.3-1.7l1.3-1.7l-1.3-1.7l1.3-1.7
	l-1.3-1.7L124,21l-1.3-1.7l0.6-0.8c-0.1-0.2-0.3-0.3-0.4-0.5l-1,1.3l1.3,1.7l-1.3,1.7l1.3,1.7l-1.3,1.7l1.3,1.7l-1.3,1.7l1.3,1.7
	l-1.3,1.7l1.3,1.7l-1.3,1.7l1.3,1.7l-1.3,1.7l0.9,1.1c0.1-0.2,0.2-0.4,0.3-0.7l-0.3-0.4L123.6,38.1z"/>
<path fill="#333333" d="M121.9,41l-1.3-1.7l1.3-1.7l-1.3-1.7l1.3-1.7l-1.3-1.7l1.3-1.7l-1.3-1.7l1.3-1.7l-1.3-1.7l1.3-1.7l-1.3-1.7
	l1.3-1.7l-1.3-1.7l1.3-1.7l-1.3-1.7l0.2-0.2c-0.1-0.1-0.3-0.3-0.5-0.4l-0.5,0.6l1.3,1.7l-1.3,1.7l1.3,1.7l-1.3,1.7l1.3,1.7l-1.3,1.7
	l1.3,1.7l-1.3,1.7l1.3,1.7l-1.3,1.7l1.3,1.7l-1.3,1.7l1.3,1.7l-1.3,1.7l1.3,1.7l-1.3,1.7l1.3,1.7c0.1-0.2,0.2-0.4,0.3-0.6l-0.8-1
	L121.9,41z"/>
<path fill="#333333" d="M120.1,46.4c0.3-0.6,0.7-1.3,1-2.1l-1.3,1.7L120.1,46.4z"/>
<path fill="#333333" d="M118.5,49.3c0.3-0.6,0.7-1.2,1.1-1.9l-1.1-1.4l1.3-1.7l-1.3-1.7l1.3-1.7l-1.3-1.7l1.3-1.7l-1.3-1.7l1.3-1.7
	l-1.3-1.7l1.3-1.7l-1.3-1.7l1.3-1.7l-1.3-1.7l1.3-1.7l-1.3-1.7l1.3-1.7l-1.3-1.7l1.3-1.7l-1.3-1.7l1.1-1.4c-0.3-0.3-0.6-0.6-1-0.9
	l0.4,0.5l-1.3,1.7l1.3,1.7l-1.3,1.7L119,21l-1.3,1.7l1.3,1.7l-1.3,1.7l1.3,1.7l-1.3,1.7L119,31l-1.3,1.7l1.3,1.7l-1.3,1.7l1.3,1.7
	l-1.3,1.7L119,41l-1.3,1.7l1.3,1.7l-1.3,1.7l1.3,1.7l-1.3,1.7l0.4,0.6C118.2,49.7,118.3,49.5,118.5,49.3L118.5,49.3L118.5,49.3z"/>
<path fill="#333333" d="M117.7,47.7l-1.3-1.7l1.3-1.7l-1.3-1.7l1.3-1.7l-1.3-1.7l1.3-1.7l-1.3-1.7l1.3-1.7l-1.3-1.7l1.3-1.7
	l-1.3-1.7l1.3-1.7l-1.3-1.7l1.3-1.7l-1.3-1.7l1.3-1.7l-1.3-1.7l1.3-1.7l-1.3-1.7l1.3-1.7l-1.3-1.7l0.3-0.4c-0.2-0.1-0.3-0.3-0.5-0.4
	l-0.6,0.8l1.3,1.7l-1.3,1.7l1.3,1.7l-1.3,1.7l1.3,1.7l-1.3,1.7l1.3,1.7l-1.3,1.7l1.3,1.7l-1.3,1.7l1.3,1.7l-1.3,1.7l1.3,1.7
	l-1.3,1.7l1.3,1.7l-1.3,1.7l1.3,1.7l-1.3,1.7l1.3,1.7l-1.3,1.7l1.3,1.7l-1.3,1.7l1.3,1.7l-0.8,1c0.3,0.1,0.8-0.3,1.4-1.2l-1.2-1.5
	L117.7,47.7z"/>
<path fill="#333333" d="M114.2,49.3l1.3-1.7l-1.3-1.7l1.3-1.7l-1.3-1.7l1.3-1.7l-1.3-1.7l1.3-1.7l-1.3-1.7l1.3-1.7l-1.3-1.7l1.3-1.7
	l-1.3-1.7l1.3-1.7l-1.3-1.7l1.3-1.7l-1.3-1.7l1.3-1.7l-1.3-1.7l1.3-1.7l-1.3-1.7l1.3-1.7l-1.3-1.7l1.1-1.4c-0.3-0.2-0.5-0.4-0.8-0.6
	l0.2,0.3l-1.3,1.7l1.3,1.7l-1.3,1.7l1.3,1.7l-1.3,1.7l1.3,1.7l-1.3,1.7l1.3,1.7l-1.3,1.7l1.3,1.7l-1.3,1.7l1.3,1.7l-1.3,1.7l1.3,1.7
	l-1.3,1.7l1.3,1.7l-1.3,1.7l1.3,1.7l-1.3,1.7l1.3,1.7l-1.3,1.7l1.3,1.7l-1.3,1.7l1.3,1.6c0.2,0.1,0.4,0.3,0.6,0.4l0.3-0.4
	L114.2,49.3z"/>
<path fill="#333333" d="M112.1,46l1.3-1.7l-1.3-1.7l1.3-1.7l-1.3-1.7l1.3-1.7l-1.3-1.7l1.3-1.7l-1.3-1.7l1.3-1.7l-1.3-1.7l1.3-1.7
	l-1.3-1.7l1.3-1.7l-1.3-1.7l1.3-1.7l-1.3-1.7l1.3-1.7l-1.3-1.7l1.3-1.7l-1.3-1.7l1.3-1.7l-1.3-1.7l0.1-0.1c-0.2-0.1-0.4-0.2-0.5-0.3
	l-0.4,0.5l1.3,1.7l-1.3,1.7l1.3,1.7l-1.3,1.7l1.3,1.7l-1.3,1.7l1.3,1.7l-1.3,1.7l1.3,1.7l-1.3,1.7l1.3,1.7l-1.3,1.7l1.3,1.7
	l-1.3,1.7l1.3,1.7l-1.3,1.7l1.3,1.7l-1.3,1.7l1.3,1.7l-1.3,1.7l1.3,1.7l-1.3,1.7l1.3,1.7l-0.9,1.1c0.2,0.1,0.3,0.2,0.5,0.4l1.2-1.5
	L112.1,46z"/>
<path fill="#333333" d="M110,46l1.3-1.7l-1.3-1.7l1.3-1.7l-1.3-1.7l1.3-1.7L110,36l1.3-1.7l-1.3-1.7l1.3-1.7l-1.3-1.7l1.3-1.7
	L110,26l1.3-1.7l-1.3-1.7l1.3-1.7l-1.3-1.7l1.3-1.7L110,16l1.3-1.7l-1.3-1.7l1.3-1.7L110,9.3l0.8-1c-0.2-0.1-0.4-0.2-0.5-0.3l-1,1.3
	l1.3,1.7l-1.3,1.7l1.3,1.7l-1.3,1.7l1.3,1.7l-1.3,1.7l1.3,1.7l-1.3,1.7l1.3,1.7l-1.3,1.7l1.3,1.7l-1.3,1.7l1.3,1.7l-1.3,1.7l1.3,1.7
	l-1.3,1.7l1.3,1.7l-1.3,1.7l1.3,1.7l-1.3,1.7l1.3,1.7l-1.3,1.7l1.3,1.7l-0.1,0.2c0.2,0.1,0.3,0.2,0.5,0.4l0.4-0.5L110,46z"/>
<path fill="#333333" d="M109.2,44.3l-1.3-1.7l1.3-1.7l-1.3-1.7l1.3-1.7l-1.3-1.7l1.3-1.7l-1.3-1.7l1.3-1.7l-1.3-1.7l1.3-1.7
	l-1.3-1.7l1.3-1.7l-1.3-1.7l1.3-1.7l-1.3-1.7l1.3-1.7l-1.3-1.7l1.3-1.7l-1.3-1.7l1.3-1.7l-1.3-1.7l1.3-1.7l-0.3-0.4
	c-0.4-0.2-0.9-0.5-1.3-0.7l0.8,1.1l-1.3,1.7l1.3,1.7l-1.3,1.7l1.3,1.7l-1.3,1.7l1.3,1.7l-1.3,1.7l1.3,1.7l-1.3,1.7l1.3,1.7l-1.3,1.7
	l1.3,1.7l-1.3,1.7l1.3,1.7l-1.3,1.7l1.3,1.7l-1.3,1.7l1.3,1.7l-1.3,1.7l1.3,1.7l-1.3,1.7l1.3,1.7l-1.1,1.4c0.2,0.2,0.5,0.3,0.8,0.5
	l-0.2-0.2L109.2,44.3z"/>
<path fill="#333333" d="M105.8,42.7l1.3-1.7l-1.3-1.7l1.3-1.7l-1.3-1.7l1.3-1.7l-1.3-1.7l1.3-1.7l-1.3-1.7l1.3-1.7l-1.3-1.7l1.3-1.7
	l-1.3-1.7l1.3-1.7l-1.3-1.7l1.3-1.7l-1.3-1.7l1.3-1.7l-1.3-1.7l1.3-1.7l-1.3-1.7l1.3-1.7L105.8,6l0.1-0.2c-0.2-0.1-0.4-0.2-0.6-0.3
	L105,6l1.3,1.7L105,9.3l1.3,1.7l-1.3,1.7l1.3,1.7L105,16l1.3,1.7l-1.3,1.7l1.3,1.7l-1.3,1.7l1.3,1.7L105,26l1.3,1.7l-1.3,1.7
	l1.3,1.7l-1.3,1.7l1.3,1.7L105,36l1.3,1.7l-1.3,1.7l1.3,1.7l-1.3,1.7l1.3,1.7l-0.4,0.5c0.2,0.1,0.3,0.2,0.5,0.3l0.6-0.8L105.8,42.7z
	"/>
<path fill="#333333" d="M105,41l-1.3-1.7l1.3-1.7l-1.3-1.7l1.3-1.7l-1.3-1.7L105,31l-1.3-1.7l1.3-1.7l-1.3-1.7l1.3-1.7l-1.3-1.7
	L105,21l-1.3-1.7l1.3-1.7l-1.3-1.7l1.3-1.7l-1.3-1.7L105,11l-1.3-1.7l1.3-1.7L103.7,6l0.7-0.9c-0.2-0.1-0.4-0.2-0.6-0.3L102.9,6
	l1.3,1.7l-1.3,1.7l1.3,1.7l-1.3,1.7l1.3,1.7l-1.3,1.7l1.3,1.7l-1.3,1.7l1.3,1.7l-1.3,1.7l1.3,1.7l-1.3,1.7l1.3,1.7l-1.3,1.7l1.3,1.7
	l-1.3,1.7l1.3,1.7l-1.3,1.7l1.3,1.7l-1.3,1.7l1.3,1.7l-1.3,1.7l0.3,0.4c0.5,0.3,1,0.6,1.6,1l-1.1-1.4L105,41z"/>
<path fill="#333333" d="M101.6,39.3l1.3-1.7l-1.3-1.7l1.3-1.7l-1.3-1.7l1.3-1.7l-1.3-1.7l1.3-1.7l-1.3-1.7l1.3-1.7l-1.3-1.7l1.3-1.7
	l-1.3-1.7l1.3-1.7l-1.3-1.7l1.3-1.7l-1.3-1.7l1.3-1.7l-1.3-1.7l1.3-1.7L101.6,6l1.2-1.5c-0.3-0.1-0.6-0.2-0.8-0.3l0.1,0.2L100.8,6
	l1.3,1.7l-1.3,1.7l1.3,1.7l-1.3,1.7l1.3,1.7l-1.3,1.7l1.3,1.7l-1.3,1.7l1.3,1.7l-1.3,1.7l1.3,1.7l-1.3,1.7l1.3,1.7l-1.3,1.7l1.3,1.7
	l-1.3,1.7l1.3,1.7l-1.3,1.7l1.3,1.7l-1.3,1.7l1.3,1.7l-0.7,0.9c0.2,0.1,0.4,0.2,0.5,0.3l1-1.3L101.6,39.3z"/>
<path fill="#333333" d="M99.4,39.3l1.3-1.7L99.4,36l1.3-1.7l-1.3-1.7l1.3-1.7l-1.3-1.7l1.3-1.7L99.4,26l1.3-1.7l-1.3-1.7l1.3-1.7
	l-1.3-1.7l1.3-1.7L99.4,16l1.3-1.7l-1.3-1.7l1.3-1.7l-1.3-1.7l1.3-1.7L99.4,6l1.3-1.7l-0.7-0.8c-0.4-0.1-0.7-0.2-1.1-0.4l0.9,1.2
	L98.7,6l1.3,1.7l-1.3,1.7L100,11l-1.3,1.7l1.3,1.7L98.7,16l1.3,1.7l-1.3,1.7L100,21l-1.3,1.7l1.3,1.7L98.7,26l1.3,1.7l-1.3,1.7
	L100,31l-1.3,1.7l1.3,1.7L98.7,36l1.3,1.7l-1.3,1.7L100,41l-0.1,0.1c0.2,0.1,0.4,0.2,0.5,0.3l0.3-0.4L99.4,39.3z"/>
<path fill="#333333" d="M98.7,37.7L97.3,36l1.3-1.7l-1.3-1.7l1.3-1.7l-1.3-1.7l1.3-1.7L97.3,26l1.3-1.7l-1.3-1.7l1.3-1.7l-1.3-1.7
	l1.3-1.7L97.3,16l1.3-1.7l-1.3-1.7l1.3-1.7l-1.3-1.7l1.3-1.7L97.3,6l1.3-1.7l-1.3-1.7l0,0c-0.2-0.1-0.4-0.1-0.6-0.2l-0.2,0.2
	l1.3,1.7L96.5,6l1.3,1.7l-1.3,1.7l1.3,1.7l-1.3,1.7l1.3,1.7L96.5,16l1.3,1.7l-1.3,1.7l1.3,1.7l-1.3,1.7l1.3,1.7L96.5,26l1.3,1.7
	l-1.3,1.7l1.3,1.7l-1.3,1.7l1.3,1.7L96.5,36l1.3,1.7l-1.2,1.6c0.4,0.2,0.8,0.4,1.1,0.6l-0.4-0.5L98.7,37.7z"/>
<path fill="#333333" d="M95.2,36l1.3-1.7l-1.3-1.7l1.3-1.7l-1.3-1.7l1.3-1.7L95.2,26l1.3-1.7l-1.3-1.7l1.3-1.7l-1.3-1.7l1.3-1.7
	L95.2,16l1.3-1.7l-1.3-1.7l1.3-1.7l-1.3-1.7l1.3-1.7L95.2,6l1.3-1.7l-1.3-1.7l0.4-0.5C95.4,2.1,95.2,2,95,2l-0.5,0.7l1.3,1.7L94.4,6
	l1.3,1.7l-1.3,1.7l1.3,1.7l-1.3,1.7l1.3,1.7L94.4,16l1.3,1.7l-1.3,1.7l1.3,1.7l-1.3,1.7l1.3,1.7L94.4,26l1.3,1.7l-1.3,1.7l1.3,1.7
	l-1.3,1.7l1.3,1.7L94.4,36l1.3,1.7l-0.6,0.8c0.2,0.1,0.4,0.2,0.6,0.3l0.8-1.1L95.2,36z"/>
<path fill="#333333" d="M93.1,36l1.3-1.7l-1.3-1.7l1.3-1.7l-1.3-1.7l1.3-1.7L93.1,26l1.3-1.7l-1.3-1.7l1.3-1.7l-1.3-1.7l1.3-1.7
	L93.1,16l1.3-1.7l-1.3-1.7l1.3-1.7l-1.3-1.7l1.3-1.7L93.1,6l1.3-1.7l-1.3-1.7l0.7-0.9c-0.2-0.1-0.5-0.1-0.7-0.1l-0.8,1.1l1.3,1.7
	L92.3,6l1.3,1.7l-1.3,1.7l1.3,1.7l-1.3,1.7l1.3,1.7L92.3,16l1.3,1.7l-1.3,1.7l1.3,1.7l-1.3,1.7l1.3,1.7L92.3,26l1.3,1.7l-1.3,1.7
	l1.3,1.7l-1.3,1.7l1.3,1.7L92.3,36l1.3,1.6c0.2,0.1,0.4,0.2,0.6,0.3l0.2-0.3L93.1,36z"/>
<path fill="#333333" d="M92.3,34.3L91,32.7l1.3-1.7L91,29.3l1.3-1.7L91,26l1.3-1.7L91,22.7l1.3-1.7L91,19.3l1.3-1.7L91,16l1.3-1.7
	L91,12.7l1.3-1.7L91,9.3l1.3-1.7L91,6l1.3-1.7L91,2.7l1-1.3c-0.2,0-0.5-0.1-0.7-0.1l-1.1,1.4l1.3,1.7L90.2,6l1.3,1.7l-1.3,1.7
	l1.3,1.7l-1.3,1.7l1.3,1.7L90.2,16l1.3,1.7l-1.3,1.7l1.3,1.7l-1.3,1.7l1.3,1.7L90.2,26l1.3,1.7l-1.3,1.7l1.3,1.7l-1.3,1.7l1.3,1.7
	l-1.2,1.6c0.4,0.2,0.7,0.3,1.1,0.5L91,36L92.3,34.3z"/>
<path fill="#333333" d="M88.9,32.7l1.3-1.7l-1.3-1.7l1.3-1.7L88.9,26l1.3-1.7l-1.3-1.7l1.3-1.7l-1.3-1.7l1.3-1.7L88.9,16l1.3-1.7
	l-1.3-1.7l1.3-1.7l-1.3-1.7l1.3-1.7L88.9,6l1.3-1.7l-1.3-1.7L90.2,1c-0.3,0-0.6-0.1-0.8-0.1L89.4,1l-1.3,1.7l1.3,1.7L88.1,6l1.3,1.7
	l-1.3,1.7l1.3,1.7l-1.3,1.7l1.3,1.7L88.1,16l1.3,1.7l-1.3,1.7l1.3,1.7l-1.3,1.7l1.3,1.7L88.1,26l1.3,1.7l-1.3,1.7l1.3,1.7l-1.3,1.7
	l1.3,1.7l-0.7,0.8c0.2,0.1,0.4,0.2,0.6,0.3l0.9-1.1L88.9,32.7z"/>
<path fill="#333333" d="M86.8,32.7l1.3-1.7l-1.3-1.7l1.3-1.7L86.8,26l1.3-1.7l-1.3-1.7l1.3-1.7l-1.3-1.7l1.3-1.7L86.8,16l1.3-1.7
	l-1.3-1.7l1.3-1.7l-1.3-1.7l1.3-1.7L86.8,6l1.3-1.7l-1.3-1.7L88.1,1l-0.2-0.3c-0.3,0-0.6-0.1-0.9-0.1L87.3,1L86,2.7l1.3,1.7L86,6
	l1.3,1.7L86,9.3l1.3,1.7L86,12.7l1.3,1.7L86,16l1.3,1.7L86,19.3l1.3,1.7L86,22.7l1.3,1.7L86,26l1.3,1.7L86,29.3l1.3,1.7L86,32.7
	l1.3,1.7l-0.1,0.1c0.2,0.1,0.4,0.2,0.6,0.3l0.3-0.4L86.8,32.7z"/>
<path fill="#333333" d="M86,31l-1.3-1.7l1.3-1.7L84.7,26l1.3-1.7l-1.3-1.7L86,21l-1.3-1.7l1.3-1.7L84.7,16l1.3-1.7l-1.3-1.7L86,11
	l-1.3-1.7L86,7.7L84.7,6L86,4.3l-1.3-1.7L86,1l-0.4-0.5c-0.3,0-0.6,0-0.8-0.1L85.2,1l-1.3,1.7l1.3,1.7L83.9,6l1.3,1.7l-1.3,1.7
	l1.3,1.7l-1.3,1.7l1.3,1.7L83.9,16l1.3,1.7l-1.3,1.7l1.3,1.7l-1.3,1.7l1.3,1.7L83.9,26l1.3,1.7l-1.3,1.7l1.3,1.7l-1.3,1.7l0.3,0.4
	c0.4,0.2,0.8,0.4,1.2,0.5l-0.8-1L86,31z"/>
<path fill="#333333" d="M82.6,29.3l1.3-1.7L82.6,26l1.3-1.7l-1.3-1.7l1.3-1.7l-1.3-1.7l1.3-1.7L82.6,16l1.3-1.7l-1.3-1.7l1.3-1.7
	l-1.3-1.7l1.3-1.7L82.6,6l1.3-1.7l-1.3-1.7L83.9,1l-0.5-0.7c-0.3,0-0.5,0-0.8,0L83.1,1l-1.3,1.7l1.3,1.7L81.8,6l1.3,1.7l-1.3,1.7
	l1.3,1.7l-1.3,1.7l1.3,1.7L81.8,16l1.3,1.7l-1.3,1.7l1.3,1.7l-1.3,1.7l1.3,1.7L81.8,26l1.3,1.7l-1.3,1.7l1.3,1.7l-0.9,1.2
	c0.2,0.1,0.4,0.2,0.6,0.3l1.1-1.5L82.6,29.3z"/>
<path fill="#333333" d="M80.4,29.3l1.3-1.7L80.4,26l1.3-1.7l-1.3-1.7l1.3-1.7l-1.3-1.7l1.3-1.7L80.4,16l1.3-1.7l-1.3-1.7l1.3-1.7
	l-1.3-1.7l1.3-1.7L80.4,6l1.3-1.7l-1.3-1.7L81.8,1l-0.6-0.8c-0.3,0-0.5,0-0.8,0L81,1l-1.3,1.7L81,4.3L79.6,6L81,7.7l-1.3,1.7L81,11
	l-1.3,1.7l1.3,1.7L79.6,16l1.3,1.7l-1.3,1.7L81,21l-1.3,1.7l1.3,1.7L79.6,26l1.3,1.7l-1.3,1.7L81,31l-0.4,0.5
	c0.2,0.1,0.4,0.2,0.6,0.2l0.6-0.8L80.4,29.3z"/>
<path fill="#333333" d="M78.3,29.3l1.3-1.7L78.3,26l1.3-1.7l-1.3-1.7l1.3-1.7l-1.3-1.7l1.3-1.7L78.3,16l1.3-1.7l-1.3-1.7l1.3-1.7
	l-1.3-1.7l1.3-1.7L78.3,6l1.3-1.7l-1.3-1.7L79.6,1L79,0.2c-0.3,0-0.5,0-0.8,0L78.8,1l-1.3,1.7l1.3,1.7L77.5,6l1.3,1.7l-1.3,1.7
	l1.3,1.7l-1.3,1.7l1.3,1.7L77.5,16l1.3,1.7l-1.3,1.7l1.3,1.7l-1.3,1.7l1.3,1.7L77.5,26l1.3,1.7l-1.3,1.7l1.2,1.5
	c0.3,0.1,0.6,0.2,0.8,0.3l0.1-0.1L78.3,29.3z"/>
<path fill="#333333" d="M77.5,27.7L76.2,26l1.3-1.7l-1.3-1.7l1.3-1.7l-1.3-1.7l1.3-1.7L76.2,16l1.3-1.7l-1.3-1.7l1.3-1.7l-1.3-1.7
	l1.3-1.7L76.2,6l1.3-1.7l-1.3-1.7L77.5,1L77,0.3c-0.3,0-0.5,0-0.8,0L76.7,1l-1.3,1.7l1.3,1.7L75.4,6l1.3,1.7l-1.3,1.7l1.3,1.7
	l-1.3,1.7l1.3,1.7L75.4,16l1.3,1.7l-1.3,1.7l1.3,1.7l-1.3,1.7l1.3,1.7L75.4,26l1.3,1.7l-1.3,1.7l0.3,0.3c0.4,0.1,0.8,0.3,1.1,0.4
	l-0.6-0.8L77.5,27.7z"/>
<path fill="#333333" d="M74.1,26l1.3-1.7l-1.3-1.7l1.3-1.7l-1.3-1.7l1.3-1.7L74.1,16l1.3-1.7l-1.3-1.7l1.3-1.7l-1.3-1.7l1.3-1.7
	L74.1,6l1.3-1.7l-1.3-1.7L75.4,1L75,0.4c-0.3,0-0.5,0-0.8,0.1L74.6,1l-1.3,1.7l1.3,1.7L73.3,6l1.3,1.7l-1.3,1.7l1.3,1.7l-1.3,1.7
	l1.3,1.7L73.3,16l1.3,1.7l-1.3,1.7l1.3,1.7l-1.3,1.7l1.3,1.7L73.3,26l1.3,1.7l-1,1.3c0.2,0.1,0.4,0.1,0.6,0.2l1.2-1.5L74.1,26z"/>
<path fill="#333333" d="M72,26l1.3-1.7L72,22.7l1.3-1.7L72,19.3l1.3-1.7L72,16l1.3-1.7L72,12.7l1.3-1.7L72,9.3l1.3-1.7L72,6l1.3-1.7
	L72,2.7L73.3,1L73,0.6c-0.2,0-0.5,0-0.7,0.1L72.5,1l-1.3,1.7l1.3,1.7L71.2,6l1.3,1.7l-1.3,1.7l1.3,1.7l-1.3,1.7l1.3,1.7L71.2,16
	l1.3,1.7l-1.3,1.7l1.3,1.7l-1.3,1.7l1.3,1.7L71.2,26l1.3,1.7L72,28.4c0.2,0.1,0.4,0.1,0.6,0.2l0.7-0.9L72,26z"/>
<path fill="#333333" d="M69.9,26l1.3-1.7l-1.3-1.7l1.3-1.7l-1.3-1.7l1.3-1.7L69.9,16l1.3-1.7l-1.3-1.7l1.3-1.7l-1.3-1.7l1.3-1.7
	L69.9,6l1.3-1.7l-1.3-1.7L71.2,1l-0.1-0.2c-0.2,0-0.5,0.1-0.7,0.1L70.4,1l-1.3,1.7l1.3,1.7L69.1,6l1.3,1.7l-1.3,1.7l1.3,1.7
	l-1.3,1.7l1.3,1.7L69.1,16l1.3,1.7l-1.3,1.7l1.3,1.7l-1.3,1.7l1.3,1.7L69.1,26l1.3,1.7l-0.1,0.1c0.2,0.1,0.4,0.1,0.6,0.2l0.3-0.4
	L69.9,26z"/>
<path fill="#333333" d="M69.1,24.3l-1.3-1.7l1.3-1.7l-1.3-1.7l1.3-1.7L67.8,16l1.3-1.7l-1.3-1.7l1.3-1.7l-1.3-1.7l1.3-1.7L67.8,6
	l1.3-1.7l-1.3-1.7L69,1.1c-0.3,0-0.6,0.1-0.9,0.2L67,2.7l1.3,1.7L67,6l1.3,1.7L67,9.3l1.3,1.7L67,12.7l1.3,1.7L67,16l1.3,1.7
	L67,19.3l1.3,1.7L67,22.7l1.3,1.7L67,26l0.8,1c0.3,0.1,0.7,0.2,1.1,0.3L67.8,26L69.1,24.3z"/>
<path fill="#333333" d="M67,24.3l-1.3-1.7L67,21l-1.3-1.7l1.3-1.7L65.7,16l1.3-1.7l-1.3-1.7L67,11l-1.3-1.7L67,7.7L65.7,6L67,4.3
	l-1.3-1.7l0.9-1.1c-0.3,0.1-0.6,0.1-1,0.2l-0.7,0.9l1.3,1.7L64.9,6l1.3,1.7l-1.3,1.7l1.3,1.7l-1.3,1.7l1.3,1.7L64.9,16l1.3,1.7
	l-1.3,1.7l1.3,1.7l-1.3,1.7l1.3,1.7L64.9,26l0.2,0.3c0.3,0.1,0.7,0.2,1,0.3L65.7,26L67,24.3z"/>
<path fill="#333333" d="M63.5,22.7l1.3-1.7l-1.3-1.7l1.3-1.7L63.5,16l1.3-1.7l-1.3-1.7l1.3-1.7l-1.3-1.7l1.3-1.7L63.5,6l1.3-1.7
	l-1.3-1.7L64,2.1c-0.3,0.1-0.7,0.2-1,0.2l-0.3,0.3l1.3,1.7L62.8,6l1.3,1.7l-1.3,1.7l1.3,1.7l-1.3,1.7l1.3,1.7L62.8,16l1.3,1.7
	l-1.3,1.7l1.3,1.7l-1.3,1.7l1.3,1.7L63,25.7c0.2,0.1,0.4,0.1,0.7,0.2l1.2-1.5L63.5,22.7z"/>
<path fill="#333333" d="M61.4,22.7l1.3-1.7l-1.3-1.7l1.3-1.7L61.4,16l1.3-1.7l-1.3-1.7l1.3-1.7l-1.3-1.7l1.3-1.7L61.4,6l1.3-1.7
	l-1.3-1.6c-0.2,0.1-0.4,0.1-0.7,0.2L62,4.3L60.6,6L62,7.7l-1.3,1.7L62,11l-1.3,1.7l1.3,1.7L60.6,16l1.3,1.7l-1.3,1.7L62,21l-1.3,1.7
	l1.3,1.7l-0.7,0.9c0.2,0.1,0.4,0.1,0.7,0.2l0.9-1.1L61.4,22.7z"/>
<path fill="#333333" d="M59.3,22.7l1.3-1.7l-1.3-1.7l1.3-1.7L59.3,16l1.3-1.7l-1.3-1.7l1.3-1.7l-1.3-1.7l1.3-1.7L59.3,6l1.3-1.7
	l-0.9-1.1c-0.2,0.1-0.4,0.1-0.6,0.2l0.8,0.9L58.5,6l1.3,1.7l-1.3,1.7l1.3,1.7l-1.3,1.7l1.3,1.7L58.5,16l1.3,1.7l-1.3,1.7l1.3,1.7
	l-1.3,1.7l1.3,1.7l-0.4,0.5c0.2,0.1,0.4,0.1,0.7,0.2l0.5-0.7L59.3,22.7z"/>
<path fill="#333333" d="M57.2,22.7l1.3-1.7l-1.3-1.7l1.3-1.7L57.2,16l1.3-1.7l-1.3-1.7l1.3-1.7l-1.3-1.7l1.3-1.7L57.2,6l1.3-1.7
	L58,3.7c-0.2,0.1-0.4,0.1-0.6,0.2l0.3,0.4L56.4,6l1.3,1.7l-1.3,1.7l1.3,1.7l-1.3,1.7l1.3,1.7L56.4,16l1.3,1.7l-1.3,1.7l1.3,1.7
	l-1.3,1.7l1.3,1.7l-0.1,0.1c0.2,0,0.5,0.1,0.7,0.2l0.2-0.2L57.2,22.7z"/>
<path fill="#333333" d="M56.4,21l-1.3-1.7l1.3-1.7L55.1,16l1.3-1.7l-1.3-1.7l1.3-1.7l-1.3-1.7l1.3-1.7L55.1,6l1.3-1.7l-0.1-0.1
	c-0.3,0.1-0.6,0.2-0.9,0.3L54.3,6l1.3,1.7l-1.3,1.7l1.3,1.7l-1.3,1.7l1.3,1.7L54.3,16l1.3,1.7l-1.3,1.7l1.3,1.7l-1.3,1.7l1,1.3
	c0.3,0.1,0.6,0.1,1,0.2l-1.2-1.5L56.4,21z"/>
<path fill="#333333" d="M54.3,21L53,19.3l1.3-1.7L53,16l1.3-1.7L53,12.7l1.3-1.7L53,9.3l1.3-1.7L53,6l0.6-0.8
	c-0.4,0.1-0.8,0.3-1.1,0.4L52.2,6l1.3,1.7l-1.3,1.7l1.3,1.7l-1.3,1.7l1.3,1.7L52.2,16l1.3,1.7l-1.3,1.7l1.3,1.7l-1.3,1.7l0.6,0.8
	c0.3,0.1,0.6,0.1,0.9,0.2l-0.8-1L54.3,21z"/>
<path fill="#333333" d="M52.2,21l-1.3-1.7l1.3-1.7L50.9,16l1.3-1.7l-1.3-1.7l1.3-1.7l-1.3-1.7l1.3-1.7L51,6.2
	c-0.2,0.1-0.4,0.2-0.6,0.2l1,1.2l-1.3,1.7l1.3,1.7l-1.3,1.7l1.3,1.7L50.1,16l1.3,1.7l-1.3,1.7l1.3,1.7l-1.3,1.7l0.3,0.4
	c0.3,0,0.6,0.1,0.9,0.1l-0.4-0.6L52.2,21z"/>
<path fill="#333333" d="M50.1,21l-1.3-1.7l1.3-1.7L48.8,16l1.3-1.7l-1.3-1.7l1.3-1.7l-1.3-1.7l1.3-1.7l-0.6-0.8
	c-0.2,0.1-0.4,0.2-0.6,0.3l0.4,0.5L48,9.3l1.3,1.7L48,12.7l1.3,1.7L48,16l1.3,1.7L48,19.3l1.3,1.7L48,22.7l0.1,0.1
	c0.3,0,0.6,0.1,0.9,0.1l-0.2-0.2L50.1,21z"/>
<path fill="#333333" d="M46.7,19.3l1.3-1.7L46.7,16l1.3-1.7l-1.3-1.7L48,11l-1.3-1.7L48,7.7l-0.1-0.1c-0.3,0.1-0.6,0.3-0.9,0.4
	l-1.1,1.4l1.3,1.7l-1.3,1.7l1.3,1.7L45.9,16l1.3,1.7l-1.3,1.7l1.3,1.7L46,22.5c0.2,0,0.5,0.1,0.7,0.1L48,21L46.7,19.3z"/>
<path fill="#333333" d="M44.5,19.3l1.3-1.7L44.5,16l1.3-1.7l-1.3-1.7l1.3-1.7l-1.3-1.7l0.3-0.4c-0.3,0.2-0.7,0.3-1,0.5l1.2,1.5
	l-1.3,1.7l1.3,1.7L43.8,16l1.3,1.7l-1.3,1.7l1.3,1.7l-1,1.3c0.2,0,0.5,0,0.7,0.1l1.1-1.4L44.5,19.3z"/>
<path fill="#333333" d="M42.4,19.3l1.3-1.7L42.4,16l1.3-1.7l-1.3-1.7l1.3-1.7l-0.8-1.1c-0.2,0.1-0.4,0.2-0.6,0.3L43,11l-1.3,1.7
	l1.3,1.7L41.6,16l1.3,1.7l-1.3,1.7L43,21L42,22.2c0.2,0,0.4,0,0.8,0l1-1.2L42.4,19.3z"/>
<path fill="#333333" d="M40.3,19.3l1.3-1.7L40.3,16l1.3-1.7l-1.3-1.7l1.3-1.7l-0.2-0.3c-0.2,0.1-0.4,0.2-0.6,0.3l-1.3,1.7l1.3,1.7
	L39.5,16l1.3,1.7l-1.3,1.7l1.3,1.7l-0.3,0.3c0.2,0.1,0.3,0.3,0.5,0.4l0.6-0.8L40.3,19.3z"/>
<path fill="#333333" d="M38.2,16l1.3-1.7l-1.3-1.7l0.3-0.4c-0.3,0.2-0.6,0.4-0.9,0.5l1.2,1.5L37.4,16l1.3,1.7l-0.6,0.7
	c0.1,0.2,0.2,0.4,0.4,0.5l1-1.3L38.2,16z"/>
<path fill="#333333" d="M36.8,13.6c-0.2,0.4-0.2,1-0.1,1.6l0.7-0.8L36.8,13.6z"/>
<path fill="#333333" d="M116.1,51.9c0.2,0.1,0.4,0,0.5-0.1c0.1-0.1,0.3-0.2,0.4-0.4c0.2-0.3,0.5-0.6,0.7-0.9
	c0.4-0.6,0.8-1.2,1.2-1.9c0.7-1.3,1.4-2.6,2-3.9c1.3-2.7,2.3-5.4,3.3-8.2c0.9-2.8,1.7-5.7,2-8.6c0.1-1.5,0.2-2.9-0.1-4.4
	c-0.3-1.4-1-2.7-1.9-3.9c-1.7-2.4-3.9-4.4-6.1-6.3c-2.3-1.9-4.7-3.5-7.3-5C105.6,5.5,100,3.3,94.3,2C82.8-0.7,70.7,0.2,59.5,3.5
	C53.9,5.2,48.4,7.4,43.2,10c-1.3,0.7-2.6,1.4-3.9,2.1c-0.6,0.4-1.3,0.7-1.9,1.1c-0.5,0.4-0.5,1.1-0.4,1.8c0.2,1.4,1,2.7,1.8,3.9
	c0.8,1.2,1.8,2.3,3,3.1l-0.1,0c6.8,0.3,13.5,1.6,20.1,3.2c6.6,1.7,13,3.8,19.3,6.4C93.5,36.8,105.3,43.7,116.1,51.9z M116.1,51.9
	c-10.8-8.2-22.6-15-35.1-20.1c-6.3-2.6-12.7-4.7-19.3-6.3c-6.6-1.6-13.3-2.8-20-3.1l-0.1,0l0,0c-1.2-0.9-2.3-2-3.1-3.2
	c-0.8-1.2-1.6-2.6-1.9-4.1c-0.1-0.7-0.1-1.7,0.6-2.3c0.7-0.4,1.3-0.8,1.9-1.1c1.3-0.7,2.6-1.4,3.9-2.1c5.3-2.7,10.7-5,16.4-6.6
	c11.3-3.3,23.5-4.1,35-1.3c5.7,1.4,11.3,3.5,16.4,6.5c2.5,1.5,5,3.2,7.3,5.1c2.3,1.9,4.4,4,6.1,6.4c0.9,1.2,1.6,2.5,1.9,4
	c0.3,1.5,0.2,3,0.1,4.4c-0.3,2.9-1.1,5.8-2,8.6c-0.9,2.8-2,5.5-3.3,8.2c-0.6,1.3-1.3,2.6-2,3.9c-0.4,0.6-0.8,1.3-1.2,1.9
	c-0.2,0.3-0.4,0.6-0.7,0.9c-0.1,0.1-0.3,0.3-0.4,0.4C116.4,51.9,116.2,52,116.1,51.9z"/>
<g>
	<path fill="#373737" d="M116.1,51.9c1.1,1.1-51.5-34.4-72.9-25.3c0,0,0.2,2.9-1.1,3.3c-1.3,0.4-9.5-0.5-6.2-4.9
		c2.3-3.1,8.5-3.9,12.7-3.5C55.6,22.1,91.4,28.6,116.1,51.9z"/>
	<path fill="#333333" d="M116.1,51.9c-0.1,0-0.3-0.2-0.5-0.3l-0.5-0.3l-1.1-0.6l-2.1-1.3l-4.2-2.5c-2.8-1.7-5.7-3.3-8.6-4.9
		c-5.8-3.2-11.7-6.1-17.7-8.7c-6-2.6-12.2-4.9-18.6-6.5c-3.2-0.8-6.5-1.3-9.7-1.4c-3.3-0.1-6.6,0.2-9.6,1.5l0.1-0.2
		c0,0.6,0,1.1-0.1,1.7c-0.1,0.5-0.2,1.1-0.7,1.6c-0.2,0.2-0.5,0.4-0.8,0.4c-0.3,0-0.6,0-0.8,0c-0.6,0-1.1-0.1-1.6-0.2
		c-1.1-0.2-2.2-0.5-3.1-1.1c-0.5-0.3-0.9-0.7-1.2-1.2c-0.3-0.6-0.2-1.2,0-1.8c0.4-1.1,1.2-1.9,2.1-2.6c0.9-0.6,1.9-1.1,3-1.4
		c2.1-0.6,4.3-0.9,6.4-0.9c2.2,0,4.3,0.4,6.4,0.7c2.1,0.4,4.2,0.8,6.3,1.3c4.2,1,8.3,2.1,12.4,3.5c8.2,2.7,16.1,6,23.6,10.2
		C102.8,41,109.8,46,116.1,51.9z M116.1,51.9C109.8,46,102.7,41.1,95.2,37c-7.5-4.1-15.5-7.4-23.6-10.1c-4.1-1.3-8.2-2.4-12.4-3.4
		c-2.1-0.5-4.2-0.9-6.3-1.3c-2.1-0.3-4.2-0.7-6.4-0.7c-2.1,0-4.3,0.3-6.3,0.9c-2,0.6-4,1.7-4.8,3.7c-0.2,0.5-0.2,1,0,1.4
		c0.2,0.4,0.6,0.8,1,1c0.9,0.5,1.9,0.8,2.9,1c0.5,0.1,1,0.1,1.6,0.2c0.5,0,1.1,0,1.4-0.3c0.3-0.3,0.5-0.8,0.6-1.3
		c0.1-0.5,0.1-1,0.1-1.6l0-0.2l0.1-0.1c3.1-1.3,6.5-1.6,9.8-1.5c3.3,0.1,6.6,0.7,9.8,1.5c6.4,1.6,12.6,3.9,18.7,6.6
		c6,2.7,11.9,5.7,17.7,8.8c2.9,1.6,5.8,3.2,8.6,4.9l4.2,2.6l2.1,1.3l1,0.7l0.5,0.3C115.7,51.8,116,51.9,116.1,51.9z"/>
</g>
</svg>
