<svg xmlns="http://www.w3.org/2000/svg" xmlns:xlink="http://www.w3.org/1999/xlink" xmlns:a="http://ns.adobe.com/AdobeSVGViewerExtensions/3.0/" version="1.1" baseProfile="tiny" x="0px" y="0px" width="100" height="100" viewBox="0 -1.3 128 128" xml:space="preserve"><style>.style0{fill:	#d3d3d3;}</style><defs></defs><polygon points="11.6,59 13.4,67 0,73.5" class="style0"/><polygon points="2.4,78.5 18.1,70.9 19.8,70.1 15.7,52.2 10.3,28.5 50.1,78.5" class="style0"/><polygon points="14.6,25 30.3,32.6 32,33.4 58.6,0 44.4,62.4" class="style0"/><polygon points="64,1.2 67.9,18.3 68.3,20 111,20 53.4,47.8" class="style0"/><polygon points="108.5,40.1 117.7,28.5 113.6,46.5" class="style0"/><polygon points="17,20 35.5,20 30.4,26.5" class="style0"/><polygon points="82.6,57.8 125.6,78.5 106.3,78.5 96.8,120.1" class="style0"/><polygon points="110.7,84 125.6,84 108.9,92.1" class="style0"/><polygon points="70.4,116.7 77.8,113.2 87.1,124.8" class="style0"/><polygon points="40.5,104.3 40.9,102.5 20.1,92.5 20.1,92.5 2.4,84 66.3,84 36.7,120.7" class="style0"/><polygon points="73.4,84 73.4,84 74.1,83.1 80.8,74.8 91.4,121.3 79.4,106.3 61.9,114.7 40.3,125.1" class="style0"/><polygon points="70.4,45.7 113.4,25 101.4,40.1 128,73.5" class="style0"/><polygon points="57.2,78.5 48.8,67.9 51.8,54.7 64,48.8 76.2,54.7 79.2,67.9 70.8,78.5" class="style0"/><polygon points="72.7,14.5 69.4,0 81,14.5" class="style0"/><polygon points="27.1,102 34.5,105.6 31.2,120.1" class="style0"/></svg>