<?xml version="1.0" encoding="utf-8"?>
<!-- Generator: Adobe Illustrator 15.0.2, SVG Export Plug-In  -->
<!DOCTYPE svg PUBLIC "-//W3C//DTD SVG 1.1 Tiny//EN" "http://www.w3.org/Graphics/SVG/1.1/DTD/svg11-tiny.dtd" [
	<!ENTITY ns_flows "http://ns.adobe.com/Flows/1.0/">
]>
<svg version="1.1" baseProfile="tiny"
	 xmlns="http://www.w3.org/2000/svg" xmlns:xlink="http://www.w3.org/1999/xlink" xmlns:a="http://ns.adobe.com/AdobeSVGViewerExtensions/3.0/"
	 x="0px" y="0px" width="209px" height="29px" viewBox="-1 -1 209 29" xml:space="preserve">
<defs>
</defs>
<path fill="#201D1D" d="M11.3,27c-1.8,0-3.3-0.3-4.7-0.8C5.2,25.6,4,24.8,3,23.8s-1.7-2.3-2.2-3.9C0.3,18.4,0,16.6,0,14.6
	c0-2,0.3-3.7,0.9-5.3c0.6-1.5,1.4-2.8,2.5-3.9c1-1.1,2.3-1.9,3.6-2.4c1.4-0.5,2.9-0.8,4.5-0.8c1,0,1.8,0.1,2.6,0.2
	c0.8,0.1,1.5,0.3,2.1,0.5c0.6,0.2,1.1,0.4,1.5,0.6C18,3.8,18.3,3.9,18.5,4l-1.3,3.5c-0.5-0.3-1.3-0.7-2.3-1s-2.1-0.5-3.3-0.5
	c-1,0-2,0.2-2.8,0.5C7.9,7,7.1,7.5,6.5,8.2C5.9,8.9,5.4,9.8,5,10.9c-0.4,1.1-0.5,2.3-0.5,3.7c0,1.3,0.1,2.4,0.4,3.4
	c0.3,1,0.7,2,1.3,2.7c0.6,0.8,1.3,1.4,2.2,1.8c0.9,0.4,2,0.6,3.2,0.6c1.5,0,2.7-0.2,3.7-0.5c0.9-0.3,1.7-0.6,2.2-0.9l1.1,3.5
	c-0.3,0.2-0.6,0.4-1.1,0.5c-0.5,0.2-1,0.4-1.6,0.5c-0.6,0.2-1.3,0.3-2.1,0.4C13,26.9,12.2,27,11.3,27z"/>
<path fill="#201D1D" d="M26.8,8.2c1.4,0,2.5,0.2,3.4,0.5c0.9,0.3,1.7,0.8,2.2,1.4c0.6,0.6,0.9,1.4,1.2,2.2c0.2,0.9,0.4,1.8,0.4,2.9
	v10.8c-0.6,0.1-1.6,0.3-2.9,0.5s-2.7,0.3-4.3,0.3c-1.1,0-2-0.1-2.9-0.3c-0.9-0.2-1.6-0.5-2.2-1c-0.6-0.5-1.1-1-1.5-1.8
	c-0.3-0.7-0.5-1.6-0.5-2.7c0-1,0.2-1.9,0.6-2.6c0.4-0.7,0.9-1.3,1.6-1.7c0.7-0.4,1.5-0.8,2.3-1c0.9-0.2,1.8-0.3,2.8-0.3
	c0.5,0,0.9,0,1.4,0.1c0.5,0.1,1,0.2,1.6,0.3v-0.7c0-0.5-0.1-0.9-0.2-1.4c-0.1-0.4-0.3-0.8-0.6-1.1c-0.3-0.3-0.7-0.6-1.1-0.8
	c-0.5-0.2-1-0.3-1.7-0.3c-0.9,0-1.8,0.1-2.6,0.2c-0.8,0.1-1.4,0.3-1.9,0.5L21.3,9c0.5-0.2,1.3-0.4,2.3-0.5
	C24.6,8.3,25.6,8.2,26.8,8.2z M27.1,23.6c1.3,0,2.2-0.1,2.9-0.2v-4.6c-0.2-0.1-0.6-0.1-1-0.2c-0.4-0.1-0.9-0.1-1.4-0.1
	c-0.5,0-0.9,0-1.4,0.1c-0.5,0.1-0.9,0.2-1.3,0.4c-0.4,0.2-0.7,0.4-0.9,0.8c-0.2,0.3-0.3,0.7-0.3,1.2c0,1,0.3,1.7,0.9,2
	C25.2,23.4,26.1,23.6,27.1,23.6z"/>
<path fill="#201D1D" d="M47.6,12.4c-0.3-0.1-0.8-0.2-1.4-0.4c-0.6-0.1-1.3-0.2-2.1-0.2c-0.5,0-0.9,0-1.4,0.1
	c-0.5,0.1-0.9,0.2-1.1,0.2v14.3h-4.1v-17c0.8-0.3,1.8-0.6,3-0.8c1.2-0.3,2.5-0.4,3.9-0.4c0.3,0,0.6,0,0.9,0.1c0.4,0,0.7,0.1,1.1,0.1
	c0.4,0.1,0.7,0.1,1,0.2c0.3,0.1,0.6,0.2,0.8,0.2L47.6,12.4z"/>
<path fill="#201D1D" d="M56,26.8c-1.2,0-2.2-0.2-3-0.4c-0.8-0.3-1.4-0.6-1.9-1.1c-0.5-0.5-0.8-1-1-1.7c-0.2-0.7-0.3-1.5-0.3-2.4V0.7
	L53.9,0v20.4c0,0.5,0,0.9,0.1,1.3c0.1,0.3,0.2,0.6,0.4,0.9c0.2,0.2,0.5,0.4,0.8,0.5s0.8,0.2,1.3,0.3L56,26.8z"/>
<path fill="#201D1D" d="M74.5,17.5c0,1.4-0.2,2.7-0.6,3.9c-0.4,1.2-1,2.1-1.7,3c-0.7,0.8-1.6,1.5-2.7,1.9c-1,0.5-2.2,0.7-3.5,0.7
	c-1.3,0-2.4-0.2-3.4-0.7c-1-0.5-1.9-1.1-2.7-1.9c-0.7-0.8-1.3-1.8-1.7-3c-0.4-1.2-0.6-2.4-0.6-3.9s0.2-2.7,0.6-3.8
	c0.4-1.1,1-2.1,1.8-3c0.8-0.8,1.6-1.5,2.7-1.9c1-0.4,2.2-0.7,3.4-0.7s2.4,0.2,3.4,0.7c1,0.4,1.9,1.1,2.7,1.9c0.7,0.8,1.3,1.8,1.7,3
	C74.3,14.9,74.5,16.1,74.5,17.5z M70.3,17.5c0-1.8-0.4-3.2-1.1-4.2c-0.8-1-1.8-1.6-3.2-1.6c-1.4,0-2.4,0.5-3.2,1.6
	c-0.8,1-1.1,2.4-1.1,4.2c0,1.8,0.4,3.2,1.1,4.3c0.8,1,1.8,1.6,3.2,1.6c1.4,0,2.4-0.5,3.2-1.6C69.9,20.8,70.3,19.3,70.3,17.5z"/>
<path fill="#201D1D" d="M81.8,23.5c1.1,0,1.9-0.1,2.4-0.4s0.7-0.7,0.7-1.3c0-0.6-0.3-1.1-0.8-1.5s-1.4-0.8-2.6-1.3
	c-0.7-0.3-1.4-0.6-2-0.9c-0.6-0.3-1.2-0.7-1.6-1.1c-0.5-0.4-0.8-0.9-1.1-1.5s-0.4-1.3-0.4-2.1c0-1.6,0.6-2.9,1.8-3.9
	c1.2-0.9,2.8-1.4,4.9-1.4c1,0,2,0.1,3,0.3C87,8.7,87.7,8.9,88.2,9l-0.7,3.3c-0.5-0.2-1-0.4-1.7-0.6c-0.7-0.2-1.5-0.3-2.4-0.3
	c-0.8,0-1.5,0.1-2,0.4c-0.5,0.3-0.8,0.7-0.8,1.3c0,0.3,0,0.6,0.2,0.8c0.1,0.2,0.3,0.4,0.5,0.6c0.2,0.2,0.6,0.4,1,0.6
	c0.4,0.2,0.9,0.4,1.5,0.6c1,0.4,1.8,0.7,2.5,1.1c0.7,0.4,1.2,0.8,1.7,1.2c0.4,0.4,0.8,1,1,1.5c0.2,0.6,0.3,1.3,0.3,2
	c0,1.7-0.6,3-1.9,3.9c-1.3,0.9-3,1.3-5.4,1.3c-1.6,0-2.8-0.1-3.8-0.4c-0.9-0.3-1.6-0.5-2-0.6l0.7-3.4c0.6,0.3,1.3,0.5,2.2,0.7
	C79.8,23.4,80.7,23.5,81.8,23.5z"/>
<path fill="#201D1D" d="M98.3,26.5V2.8h13.5v2h-11.2v8.2h10v2h-10v9.4h12.1v2H98.3z"/>
<path fill="#201D1D" d="M121.5,8.5c0.7,0,1.4,0.1,2,0.2c0.6,0.1,1.1,0.2,1.3,0.3l-0.4,1.9c-0.2-0.1-0.5-0.2-1.1-0.3
	c-0.6-0.1-1.3-0.2-2.2-0.2c-0.9,0-1.7,0.1-2.3,0.2c-0.6,0.1-1,0.3-1.1,0.3v15.5h-2.2V9.7c0.6-0.3,1.3-0.5,2.3-0.8
	C118.9,8.6,120.1,8.5,121.5,8.5z"/>
<path fill="#201D1D" d="M129.5,3.5c0,0.5-0.2,0.9-0.5,1.2c-0.3,0.3-0.7,0.5-1.1,0.5s-0.8-0.2-1.2-0.5c-0.3-0.3-0.5-0.7-0.5-1.2
	c0-0.5,0.2-0.9,0.5-1.2c0.3-0.3,0.7-0.5,1.2-0.5s0.8,0.2,1.1,0.5C129.4,2.6,129.5,3,129.5,3.5z M129,26.5h-2.2V8.8h2.2V26.5z"/>
<path fill="#201D1D" d="M137.9,16.9c0.8,0.6,1.6,1.2,2.4,2c0.8,0.7,1.6,1.5,2.4,2.4s1.5,1.8,2.2,2.7c0.7,0.9,1.3,1.8,1.8,2.6H144
	c-0.5-0.9-1.1-1.8-1.8-2.6c-0.7-0.9-1.4-1.7-2.2-2.4c-0.8-0.8-1.5-1.5-2.3-2.1c-0.8-0.6-1.4-1.1-2-1.4v8.6h-2.2V0.4l2.2-0.4v16.4
	c0.5-0.4,1.1-1,1.8-1.7c0.7-0.7,1.4-1.4,2.1-2.1c0.7-0.7,1.4-1.4,2.1-2.1c0.6-0.7,1.2-1.3,1.6-1.8h2.7c-0.5,0.5-1.1,1.2-1.8,1.8
	c-0.7,0.7-1.4,1.4-2.1,2.1c-0.7,0.7-1.4,1.4-2.1,2.1C139.2,15.6,138.5,16.2,137.9,16.9z"/>
<path fill="#201D1D" d="M152.4,24.9c1.3,0,2.3-0.2,3.1-0.6c0.8-0.4,1.2-1.1,1.2-2.1c0-0.5-0.1-0.9-0.2-1.2c-0.1-0.3-0.4-0.6-0.7-0.9
	c-0.3-0.3-0.8-0.5-1.3-0.8s-1.2-0.5-2-0.9c-0.7-0.3-1.3-0.6-1.9-0.8c-0.6-0.3-1.1-0.6-1.6-1c-0.5-0.4-0.8-0.8-1.1-1.3
	c-0.3-0.5-0.4-1.2-0.4-1.9c0-1.4,0.5-2.6,1.6-3.5c1.1-0.9,2.5-1.3,4.4-1.3c1.2,0,2.2,0.1,3,0.3c0.8,0.2,1.3,0.4,1.6,0.5l-0.5,2
	c-0.3-0.1-0.7-0.3-1.4-0.5c-0.6-0.2-1.6-0.3-2.8-0.3c-0.5,0-1,0.1-1.4,0.2c-0.4,0.1-0.8,0.3-1.2,0.5c-0.3,0.2-0.6,0.5-0.8,0.8
	c-0.2,0.3-0.3,0.7-0.3,1.2c0,0.5,0.1,0.9,0.3,1.2c0.2,0.3,0.4,0.6,0.8,0.9c0.3,0.3,0.8,0.5,1.3,0.7c0.5,0.2,1.1,0.5,1.7,0.7
	c0.7,0.3,1.3,0.5,1.9,0.8c0.6,0.3,1.2,0.6,1.6,1c0.5,0.4,0.9,0.9,1.1,1.4c0.3,0.6,0.4,1.3,0.4,2.1c0,1.6-0.6,2.8-1.8,3.6
	c-1.2,0.8-2.8,1.2-4.8,1.2c-1.5,0-2.7-0.1-3.5-0.4c-0.8-0.3-1.4-0.5-1.6-0.6l0.6-2c0.1,0,0.2,0.1,0.4,0.2c0.2,0.1,0.5,0.2,0.9,0.3
	s0.8,0.2,1.4,0.3S151.7,24.9,152.4,24.9z"/>
<path fill="#201D1D" d="M165.5,24.9c1.3,0,2.3-0.2,3.1-0.6c0.8-0.4,1.2-1.1,1.2-2.1c0-0.5-0.1-0.9-0.2-1.2c-0.1-0.3-0.4-0.6-0.7-0.9
	s-0.8-0.5-1.3-0.8c-0.6-0.3-1.2-0.5-2-0.9c-0.7-0.3-1.3-0.6-1.9-0.8c-0.6-0.3-1.1-0.6-1.6-1c-0.5-0.4-0.8-0.8-1.1-1.3
	c-0.3-0.5-0.4-1.2-0.4-1.9c0-1.4,0.5-2.6,1.6-3.5c1.1-0.9,2.5-1.3,4.4-1.3c1.2,0,2.2,0.1,3,0.3c0.8,0.2,1.3,0.4,1.6,0.5l-0.5,2
	c-0.3-0.1-0.7-0.3-1.4-0.5c-0.6-0.2-1.6-0.3-2.8-0.3c-0.5,0-1,0.1-1.4,0.2c-0.4,0.1-0.8,0.3-1.2,0.5c-0.3,0.2-0.6,0.5-0.8,0.8
	c-0.2,0.3-0.3,0.7-0.3,1.2c0,0.5,0.1,0.9,0.3,1.2c0.2,0.3,0.4,0.6,0.8,0.9c0.3,0.3,0.8,0.5,1.3,0.7c0.5,0.2,1.1,0.5,1.7,0.7
	c0.7,0.3,1.3,0.5,1.9,0.8c0.6,0.3,1.2,0.6,1.6,1c0.5,0.4,0.9,0.9,1.2,1.4c0.3,0.6,0.4,1.3,0.4,2.1c0,1.6-0.6,2.8-1.8,3.6
	c-1.2,0.8-2.8,1.2-4.8,1.2c-1.5,0-2.7-0.1-3.5-0.4s-1.4-0.5-1.6-0.6l0.6-2c0.1,0,0.2,0.1,0.4,0.2c0.2,0.1,0.5,0.2,0.9,0.3
	c0.4,0.1,0.8,0.2,1.4,0.3C164.2,24.9,164.8,24.9,165.5,24.9z"/>
<path fill="#201D1D" d="M190,17.7c0,1.4-0.2,2.7-0.6,3.8s-0.9,2.1-1.7,2.9c-0.7,0.8-1.6,1.4-2.5,1.9c-1,0.4-2,0.7-3.2,0.7
	s-2.2-0.2-3.2-0.7c-1-0.4-1.8-1.1-2.5-1.9c-0.7-0.8-1.3-1.8-1.7-2.9c-0.4-1.1-0.6-2.4-0.6-3.8c0-1.4,0.2-2.7,0.6-3.8
	c0.4-1.1,0.9-2.1,1.7-2.9c0.7-0.8,1.6-1.4,2.5-1.9c1-0.4,2-0.7,3.2-0.7s2.2,0.2,3.2,0.7c1,0.4,1.8,1.1,2.5,1.9
	c0.7,0.8,1.3,1.8,1.7,2.9C189.8,15,190,16.3,190,17.7z M187.6,17.7c0-2.2-0.5-4-1.5-5.3c-1-1.3-2.4-2-4.1-2s-3.1,0.7-4.1,2
	c-1,1.3-1.5,3.1-1.5,5.3c0,2.2,0.5,4,1.5,5.3s2.4,1.9,4.1,1.9s3.1-0.6,4.1-1.9S187.6,19.9,187.6,17.7z"/>
<path fill="#201D1D" d="M193.4,9.5c0.7-0.2,1.5-0.4,2.6-0.6s2.5-0.3,4.1-0.3c1.3,0,2.4,0.2,3.3,0.6c0.9,0.4,1.6,0.9,2.1,1.7
	c0.5,0.7,0.9,1.6,1.1,2.6c0.2,1,0.3,2.1,0.3,3.3v9.9h-2.2v-9.1c0-1.3-0.1-2.3-0.3-3.2c-0.2-0.9-0.5-1.6-0.8-2.1
	c-0.4-0.5-0.9-0.9-1.6-1.2c-0.6-0.2-1.4-0.4-2.4-0.4c-1,0-1.9,0.1-2.7,0.2c-0.8,0.1-1.2,0.2-1.5,0.3v15.5h-2.2V9.5z"/>
</svg>
