<?xml version="1.0" encoding="utf-8"?>
<!-- Generator: Adobe Illustrator 15.0.2, SVG Export Plug-In  -->
<!DOCTYPE svg PUBLIC "-//W3C//DTD SVG 1.1 Tiny//EN" "http://www.w3.org/Graphics/SVG/1.1/DTD/svg11-tiny.dtd" [
	<!ENTITY ns_flows "http://ns.adobe.com/Flows/1.0/">
]>
<svg version="1.1" baseProfile="tiny"
	 xmlns="http://www.w3.org/2000/svg" xmlns:xlink="http://www.w3.org/1999/xlink" xmlns:a="http://ns.adobe.com/AdobeSVGViewerExtensions/3.0/"
	 x="0px" y="0px" width="288" height="32" viewBox="0 0 288 32" xml:space="preserve">
<defs>
</defs>
<path fill="#201D1D" d="M59.9,26.6c-1.8,0-3.3-0.3-4.7-0.8c-1.4-0.5-2.6-1.3-3.5-2.4c-1-1-1.7-2.3-2.2-3.8c-0.5-1.5-0.8-3.2-0.8-5.2
	c0-1.9,0.3-3.7,0.9-5.2s1.4-2.8,2.4-3.8c1-1,2.2-1.8,3.6-2.4c1.4-0.5,2.9-0.8,4.5-0.8c1,0,1.8,0.1,2.6,0.2c0.8,0.1,1.5,0.3,2,0.5
	c0.6,0.2,1.1,0.4,1.5,0.6C66.6,3.7,66.8,3.9,67,4l-1.2,3.5c-0.5-0.3-1.3-0.7-2.3-1c-1-0.3-2.1-0.5-3.3-0.5c-1,0-2,0.2-2.8,0.5
	c-0.9,0.3-1.6,0.9-2.3,1.6c-0.6,0.7-1.1,1.6-1.5,2.6c-0.4,1.1-0.5,2.3-0.5,3.7c0,1.2,0.1,2.4,0.4,3.4s0.7,1.9,1.3,2.7
	c0.6,0.8,1.3,1.3,2.2,1.8c0.9,0.4,2,0.6,3.2,0.6c1.5,0,2.7-0.2,3.7-0.5c0.9-0.3,1.7-0.6,2.2-0.9l1.1,3.5c-0.3,0.2-0.6,0.4-1.1,0.5
	c-0.5,0.2-1,0.4-1.6,0.5c-0.6,0.2-1.3,0.3-2.1,0.4C61.6,26.6,60.8,26.6,59.9,26.6z"/>
<path fill="#201D1D" d="M76.6,8.1c1.3,0,2.5,0.2,3.4,0.5c0.9,0.3,1.7,0.8,2.2,1.4c0.6,0.6,0.9,1.3,1.2,2.2c0.2,0.9,0.3,1.8,0.3,2.8
	v10.7c-0.6,0.1-1.6,0.3-2.8,0.5c-1.3,0.2-2.7,0.3-4.3,0.3c-1.1,0-2-0.1-2.9-0.3c-0.9-0.2-1.6-0.5-2.2-1c-0.6-0.4-1.1-1-1.4-1.8
	c-0.4-0.7-0.5-1.6-0.5-2.7c0-1,0.2-1.9,0.6-2.6c0.4-0.7,0.9-1.3,1.6-1.7c0.7-0.4,1.4-0.8,2.3-0.9s1.8-0.3,2.8-0.3
	c0.5,0,0.9,0,1.4,0.1c0.5,0.1,1,0.2,1.6,0.3V15c0-0.5,0-0.9-0.2-1.3c-0.1-0.4-0.3-0.8-0.6-1.1c-0.3-0.3-0.7-0.6-1.1-0.8
	c-0.5-0.2-1-0.3-1.7-0.3c-0.9,0-1.8,0.1-2.6,0.2c-0.8,0.1-1.4,0.3-1.9,0.5l-0.5-3.3c0.5-0.2,1.3-0.4,2.3-0.5
	C74.5,8.2,75.5,8.1,76.6,8.1z M77,23.3c1.3,0,2.2-0.1,2.9-0.2v-4.5c-0.2-0.1-0.5-0.1-1-0.2c-0.4-0.1-0.9-0.1-1.4-0.1
	c-0.5,0-0.9,0-1.4,0.1c-0.5,0.1-0.9,0.2-1.2,0.4c-0.4,0.2-0.7,0.4-0.9,0.8c-0.2,0.3-0.3,0.7-0.3,1.2c0,1,0.3,1.6,0.9,2
	C75.1,23.1,75.9,23.3,77,23.3z"/>
<path fill="#201D1D" d="M98.8,12.2c-0.3-0.1-0.8-0.2-1.4-0.4c-0.6-0.1-1.3-0.2-2.1-0.2c-0.4,0-0.9,0-1.4,0.1
	c-0.5,0.1-0.9,0.2-1.1,0.2v14.1h-4.1V9.4c0.8-0.3,1.8-0.6,2.9-0.8c1.2-0.3,2.5-0.4,3.9-0.4c0.3,0,0.6,0,0.9,0.1
	c0.4,0,0.7,0.1,1.1,0.1c0.4,0.1,0.7,0.1,1,0.2c0.3,0.1,0.6,0.2,0.8,0.2L98.8,12.2z"/>
<path fill="#201D1D" d="M108.4,26.5c-1.2,0-2.2-0.2-3-0.4c-0.8-0.2-1.4-0.6-1.9-1.1c-0.5-0.5-0.8-1-1-1.7c-0.2-0.7-0.3-1.5-0.3-2.3
	V0.7l4.1-0.7v20.2c0,0.5,0,0.9,0.1,1.2c0.1,0.3,0.2,0.6,0.4,0.9s0.5,0.4,0.8,0.5c0.3,0.1,0.8,0.2,1.3,0.3L108.4,26.5z"/>
<path fill="#201D1D" d="M128.2,17.3c0,1.4-0.2,2.7-0.6,3.8c-0.4,1.1-1,2.1-1.7,2.9c-0.7,0.8-1.6,1.4-2.7,1.9c-1,0.5-2.2,0.7-3.5,0.7
	s-2.4-0.2-3.4-0.7c-1-0.4-1.9-1.1-2.7-1.9c-0.7-0.8-1.3-1.8-1.7-2.9c-0.4-1.1-0.6-2.4-0.6-3.8s0.2-2.7,0.6-3.8
	c0.4-1.1,1-2.1,1.8-2.9c0.8-0.8,1.6-1.4,2.7-1.9c1-0.4,2.2-0.7,3.4-0.7c1.2,0,2.4,0.2,3.4,0.7c1.1,0.4,1.9,1.1,2.7,1.9
	c0.7,0.8,1.3,1.8,1.7,2.9C128,14.6,128.2,15.9,128.2,17.3z M124,17.3c0-1.8-0.4-3.1-1.1-4.2c-0.8-1-1.8-1.5-3.1-1.5
	c-1.4,0-2.4,0.5-3.2,1.5c-0.8,1-1.1,2.4-1.1,4.2c0,1.8,0.4,3.2,1.1,4.2c0.8,1,1.8,1.5,3.2,1.5c1.3,0,2.4-0.5,3.1-1.5
	C123.7,20.5,124,19.1,124,17.3z"/>
<path fill="#201D1D" d="M136.8,23.2c1.1,0,1.9-0.1,2.4-0.4c0.5-0.3,0.7-0.7,0.7-1.3c0-0.6-0.3-1.1-0.8-1.4c-0.5-0.4-1.4-0.8-2.6-1.2
	c-0.7-0.3-1.4-0.6-2-0.9c-0.6-0.3-1.1-0.7-1.6-1.1c-0.5-0.4-0.8-0.9-1.1-1.5c-0.3-0.6-0.4-1.3-0.4-2.1c0-1.6,0.6-2.9,1.8-3.8
	c1.2-0.9,2.8-1.4,4.8-1.4c1,0,2,0.1,3,0.3c0.9,0.2,1.7,0.4,2.1,0.6l-0.7,3.3c-0.4-0.2-1-0.4-1.7-0.6c-0.7-0.2-1.5-0.3-2.4-0.3
	c-0.8,0-1.5,0.1-2,0.4c-0.5,0.3-0.8,0.7-0.8,1.3c0,0.3,0,0.5,0.2,0.8c0.1,0.2,0.3,0.4,0.5,0.6c0.3,0.2,0.6,0.4,1,0.6
	c0.4,0.2,0.9,0.4,1.5,0.6c1,0.4,1.8,0.7,2.5,1.1c0.7,0.3,1.2,0.7,1.7,1.2s0.8,0.9,1,1.5c0.2,0.6,0.3,1.2,0.3,2c0,1.7-0.6,3-1.9,3.8
	c-1.2,0.9-3,1.3-5.3,1.3c-1.5,0-2.8-0.1-3.7-0.4c-0.9-0.3-1.6-0.5-2-0.6l0.7-3.4c0.6,0.2,1.3,0.5,2.2,0.7
	C134.8,23.1,135.8,23.2,136.8,23.2z"/>
<path fill="#201D1D" d="M155.9,26.1V2.8h13.5v2h-11.2v8.1h10v2h-10v9.3h12v2H155.9z"/>
<path fill="#201D1D" d="M180.4,8.4c0.7,0,1.4,0.1,2,0.2c0.6,0.1,1.1,0.2,1.3,0.3l-0.4,1.9c-0.2-0.1-0.5-0.2-1.1-0.3
	s-1.3-0.2-2.2-0.2c-0.9,0-1.7,0.1-2.3,0.2c-0.6,0.1-1,0.2-1.1,0.3v15.2h-2.2V9.5c0.6-0.2,1.3-0.5,2.3-0.8
	C177.8,8.5,179,8.4,180.4,8.4z"/>
<path fill="#201D1D" d="M189.7,3.5c0,0.5-0.2,0.9-0.5,1.2c-0.3,0.3-0.7,0.5-1.1,0.5S187.3,5,187,4.7c-0.3-0.3-0.5-0.7-0.5-1.2
	c0-0.5,0.2-0.9,0.5-1.2c0.3-0.3,0.7-0.5,1.1-0.5s0.8,0.2,1.1,0.5C189.6,2.5,189.7,2.9,189.7,3.5z"/>
<rect x="187" y="8.7" fill="#201D1D" width="2.2" height="17.4"/>
<path fill="#201D1D" d="M199.4,16.6c0.8,0.6,1.6,1.2,2.4,1.9c0.8,0.7,1.6,1.5,2.4,2.4c0.8,0.9,1.5,1.7,2.2,2.6
	c0.7,0.9,1.3,1.7,1.8,2.5h-2.6c-0.5-0.9-1.1-1.8-1.8-2.6c-0.7-0.9-1.4-1.7-2.2-2.4c-0.8-0.8-1.5-1.4-2.3-2.1c-0.8-0.6-1.4-1.1-2-1.4
	v8.5H195V0.4l2.2-0.4v16.2c0.5-0.4,1-0.9,1.8-1.6c0.7-0.7,1.4-1.4,2.1-2.1c0.7-0.7,1.4-1.4,2.1-2c0.6-0.7,1.2-1.2,1.6-1.7h2.7
	c-0.5,0.5-1.1,1.1-1.8,1.8c-0.7,0.7-1.4,1.3-2.1,2.1c-0.7,0.7-1.4,1.4-2.1,2.1C200.7,15.4,200.1,16,199.4,16.6z"/>
<path fill="#201D1D" d="M215.2,24.6c1.3,0,2.3-0.2,3.1-0.6c0.8-0.4,1.2-1.1,1.2-2.1c0-0.5-0.1-0.9-0.2-1.2c-0.1-0.3-0.4-0.6-0.7-0.9
	c-0.3-0.3-0.8-0.5-1.3-0.8c-0.5-0.2-1.2-0.5-2-0.9c-0.6-0.3-1.3-0.5-1.9-0.8c-0.6-0.3-1.1-0.6-1.5-1c-0.5-0.4-0.8-0.8-1.1-1.3
	s-0.4-1.1-0.4-1.9c0-1.4,0.5-2.6,1.6-3.4s2.5-1.3,4.4-1.3c1.2,0,2.2,0.1,2.9,0.3c0.8,0.2,1.3,0.4,1.6,0.5l-0.5,2
	c-0.3-0.1-0.7-0.3-1.4-0.5c-0.6-0.2-1.6-0.3-2.8-0.3c-0.5,0-1,0.1-1.4,0.2c-0.4,0.1-0.8,0.3-1.2,0.5c-0.3,0.2-0.6,0.5-0.8,0.8
	c-0.2,0.3-0.3,0.7-0.3,1.2c0,0.5,0.1,0.9,0.3,1.2c0.2,0.3,0.5,0.6,0.8,0.9c0.3,0.3,0.8,0.5,1.3,0.7c0.5,0.2,1.1,0.5,1.7,0.7
	c0.7,0.3,1.3,0.5,1.9,0.8c0.6,0.3,1.2,0.6,1.6,1c0.5,0.4,0.8,0.9,1.1,1.4c0.3,0.5,0.4,1.2,0.4,2.1c0,1.6-0.6,2.8-1.8,3.6
	c-1.2,0.8-2.8,1.2-4.8,1.2c-1.5,0-2.7-0.1-3.5-0.4c-0.8-0.3-1.4-0.5-1.6-0.6l0.6-2c0.1,0,0.2,0.1,0.4,0.2c0.2,0.1,0.5,0.2,0.9,0.3
	c0.4,0.1,0.8,0.2,1.4,0.3C213.9,24.5,214.5,24.6,215.2,24.6z"/>
<path fill="#201D1D" d="M229.6,24.6c1.3,0,2.3-0.2,3.1-0.6c0.8-0.4,1.2-1.1,1.2-2.1c0-0.5-0.1-0.9-0.2-1.2c-0.1-0.3-0.4-0.6-0.7-0.9
	s-0.8-0.5-1.3-0.8c-0.5-0.2-1.2-0.5-2-0.9c-0.6-0.3-1.3-0.5-1.8-0.8c-0.6-0.3-1.1-0.6-1.5-1c-0.5-0.4-0.8-0.8-1.1-1.3
	c-0.3-0.5-0.4-1.1-0.4-1.9c0-1.4,0.5-2.6,1.6-3.4c1.1-0.9,2.5-1.3,4.4-1.3c1.2,0,2.2,0.1,2.9,0.3c0.8,0.2,1.3,0.4,1.6,0.5l-0.5,2
	c-0.3-0.1-0.7-0.3-1.4-0.5c-0.6-0.2-1.6-0.3-2.8-0.3c-0.5,0-1,0.1-1.4,0.2c-0.4,0.1-0.8,0.3-1.2,0.5c-0.3,0.2-0.6,0.5-0.8,0.8
	c-0.2,0.3-0.3,0.7-0.3,1.2c0,0.5,0.1,0.9,0.3,1.2c0.2,0.3,0.4,0.6,0.8,0.9c0.3,0.3,0.8,0.5,1.3,0.7c0.5,0.2,1.1,0.5,1.7,0.7
	c0.7,0.3,1.3,0.5,1.9,0.8c0.6,0.3,1.2,0.6,1.6,1c0.5,0.4,0.9,0.9,1.1,1.4c0.3,0.5,0.4,1.2,0.4,2.1c0,1.6-0.6,2.8-1.8,3.6
	c-1.2,0.8-2.8,1.2-4.8,1.2c-1.5,0-2.7-0.1-3.5-0.4c-0.8-0.3-1.3-0.5-1.6-0.6l0.6-2c0.1,0,0.2,0.1,0.4,0.2c0.2,0.1,0.5,0.2,0.9,0.3
	c0.4,0.1,0.8,0.2,1.4,0.3C228.3,24.5,229,24.6,229.6,24.6z"/>
<path fill="#201D1D" d="M255.3,17.4c0,1.4-0.2,2.6-0.6,3.7c-0.4,1.1-0.9,2.1-1.6,2.9c-0.7,0.8-1.5,1.4-2.5,1.8c-1,0.4-2,0.7-3.2,0.7
	c-1.2,0-2.2-0.2-3.2-0.7c-1-0.4-1.8-1-2.5-1.8c-0.7-0.8-1.3-1.7-1.6-2.9c-0.4-1.1-0.6-2.4-0.6-3.7c0-1.4,0.2-2.6,0.6-3.7
	c0.4-1.1,0.9-2.1,1.6-2.9c0.7-0.8,1.5-1.4,2.5-1.9c1-0.4,2-0.7,3.2-0.7c1.2,0,2.2,0.2,3.2,0.7c1,0.4,1.8,1.1,2.5,1.9
	c0.7,0.8,1.3,1.8,1.6,2.9C255.1,14.8,255.3,16.1,255.3,17.4z M253,17.4c0-2.2-0.5-3.9-1.5-5.2c-1-1.3-2.4-1.9-4.1-1.9
	c-1.7,0-3.1,0.6-4.1,1.9c-1,1.3-1.5,3-1.5,5.2c0,2.2,0.5,3.9,1.5,5.2c1,1.3,2.4,1.9,4.1,1.9c1.7,0,3.1-0.6,4.1-1.9
	C252.5,21.3,253,19.6,253,17.4z"/>
<path fill="#201D1D" d="M260.1,9.3c0.6-0.2,1.5-0.4,2.6-0.6c1.1-0.2,2.4-0.3,4-0.3c1.3,0,2.4,0.2,3.3,0.6s1.6,0.9,2.1,1.6
	c0.5,0.7,0.9,1.6,1.1,2.5c0.2,1,0.3,2.1,0.3,3.3v9.7h-2.2v-9c0-1.2-0.1-2.3-0.3-3.1c-0.2-0.9-0.4-1.6-0.8-2.1
	c-0.4-0.5-0.9-0.9-1.5-1.2c-0.6-0.2-1.4-0.4-2.4-0.4c-1,0-1.9,0.1-2.7,0.2c-0.8,0.1-1.2,0.2-1.5,0.3v15.3h-2.2V9.3z"/>
<polygon fill="#201D1D" points="3,15.1 3.4,17.2 0,18.8 "/>
<polygon fill="#201D1D" points="0.6,20.1 4.6,18.1 5.1,17.9 4,13.3 2.6,7.3 12.8,20.1 "/>
<polygon fill="#201D1D" points="3.7,6.4 7.8,8.3 8.2,8.5 15,0 11.3,16 "/>
<polygon fill="#201D1D" points="16.4,0.3 17.4,4.7 17.5,5.1 28.4,5.1 13.7,12.2 "/>
<polygon fill="#201D1D" points="27.8,10.3 30.1,7.3 29.1,11.9 "/>
<polygon fill="#201D1D" points="4.3,5.1 9.1,5.1 7.8,6.8 "/>
<polygon fill="#201D1D" points="21.1,14.8 32.1,20.1 27.2,20.1 24.8,30.7 "/>
<polygon fill="#201D1D" points="28.3,21.5 32.1,21.5 27.9,23.5 "/>
<polygon fill="#201D1D" points="18,29.9 19.9,28.9 22.3,31.9 "/>
<polygon fill="#201D1D" points="10.4,26.7 10.5,26.2 5.2,23.7 5.2,23.7 0.6,21.5 17,21.5 9.4,30.9 "/>
<polygon fill="#201D1D" points="18.8,21.5 18.8,21.5 19,21.3 20.7,19.1 23.4,31 20.3,27.2 15.8,29.3 10.3,32 "/>
<polygon fill="#201D1D" points="18,11.7 29,6.4 25.9,10.3 32.8,18.8 "/>
<polygon fill="#201D1D" points="14.6,20.1 12.5,17.4 13.3,14 16.4,12.5 19.5,14 20.3,17.4 18.1,20.1 "/>
<polygon fill="#201D1D" points="18.6,3.7 17.8,0 20.7,3.7 "/>
<polygon fill="#201D1D" points="6.9,26.1 8.8,27 8,30.7 "/>
</svg>
