<?xml version="1.0" encoding="utf-8"?>
<!-- Generator: Adobe Illustrator 15.0.2, SVG Export Plug-In  -->
<!DOCTYPE svg PUBLIC "-//W3C//DTD SVG 1.1 Tiny//EN" "http://www.w3.org/Graphics/SVG/1.1/DTD/svg11-tiny.dtd" [
	<!ENTITY ns_flows "http://ns.adobe.com/Flows/1.0/">
]>
<svg version="1.1" baseProfile="tiny"
	 xmlns="http://www.w3.org/2000/svg" xmlns:xlink="http://www.w3.org/1999/xlink" xmlns:a="http://ns.adobe.com/AdobeSVGViewerExtensions/3.0/"
	 x="0px" y="0px" width="56" height="56" viewBox="-6.7 -5.5 56 56" xml:space="preserve">
<defs>
</defs>
<path fill="#080E1A" d="M11,38.4c-3,0-5.5-2.5-5.5-5.5c0-1.4,0.5-2.7,1.4-3.6C3,29.5,0,32.6,0,36.5c0,4,3.3,7.3,7.3,7.3
	c3.9,0,7.1-3,7.3-6.9C13.6,37.8,12.4,38.4,11,38.4z M7.3,42.6c-3.4,0-6.1-2.7-6.1-6.1c0-2.3,1.3-4.4,3.3-5.4
	c-0.2,0.6-0.2,1.1-0.2,1.7c0,3.7,3,6.7,6.7,6.7c0.6,0,1.2-0.1,1.7-0.2C11.7,41.3,9.6,42.6,7.3,42.6z"/>
<path fill="#FAC129" d="M35.3,2.1c0.4,0,0.8,0,1.1,0.1L35.3,0l-1.1,2.3C34.5,2.2,34.9,2.1,35.3,2.1z"/>
<path fill="#FAC129" d="M43.8,8.5l-2.3-1.1c0.1,0.4,0.1,0.7,0.1,1.1s0,0.8-0.1,1.1L43.8,8.5z"/>
<path fill="#FAC129" d="M28.9,8.5c0-0.4,0-0.8,0.1-1.1l-2.3,1.1L29,9.7C29,9.3,28.9,8.9,28.9,8.5z"/>
<path fill="#FAC129" d="M35.3,14.9c-0.4,0-0.8,0-1.1-0.1l1.1,2.3l1.1-2.3C36.1,14.9,35.7,14.9,35.3,14.9z"/>
<path fill="#FAC129" d="M39.8,4c0.3,0.3,0.5,0.6,0.7,0.9l0.8-2.4L39,3.3C39.3,3.5,39.6,3.7,39.8,4z"/>
<path fill="#FAC129" d="M41.3,14.6l-0.8-2.4c-0.2,0.3-0.4,0.6-0.7,0.9c-0.3,0.3-0.6,0.5-0.9,0.7L41.3,14.6z"/>
<path fill="#FAC129" d="M30.8,4c0.3-0.3,0.6-0.5,0.9-0.7l-2.4-0.8l0.8,2.4C30.3,4.6,30.5,4.3,30.8,4z"/>
<path fill="#FAC129" d="M30.8,13.1c-0.3-0.3-0.5-0.6-0.7-0.9l-0.8,2.4l2.4-0.8C31.4,13.6,31.1,13.3,30.8,13.1z"/>
<path fill="#FAC129" d="M35.3,3.7c-2.7,0-4.9,2.2-4.9,4.9s2.2,4.9,4.9,4.9s4.9-2.2,4.9-4.9S38,3.7,35.3,3.7z M35.3,12.2
	c-2,0-3.7-1.6-3.7-3.7s1.6-3.7,3.7-3.7S39,6.5,39,8.5S37.3,12.2,35.3,12.2z"/>
</svg>
