<svg xmlns="http://www.w3.org/2000/svg">
<defs>

<symbol id="new-window" viewBox="0 0 10 10">
	<polygon points="0,1 0,10 7,10 7,7 6,7 6,9 1,9 1,2 2,2 2,1 "/>
	<polygon points="4,0 10,0 10,6 9,6 9,2 6,5 5,4 8,1 4,1 "/>
</symbol>

<symbol id="media" viewBox="0 0 10 10">
	<path d="M10,0v10h10V0H10z M12.9,8V2l5,3L12.9,8z"/>
</symbol>

<symbol id="wikipedia" viewBox="0 0 10 10">
	<polygon points="20,0 20,1 21,1 22,10 23,10 25,4 27,10 28,10 29,1 30,1 30,0 28,0 27,7 25,2 23,7 22,0 "/>
</symbol>

<symbol id="location" viewBox="0 0 10 10">
	<path d="M40,0v10l5-1V1L40,0z M44,8l-3,1V1l3,1V8z"/>
<path d="M45,1v8l5,1V0L45,1z M49,9l-4-1V2l4-1V9z"/>
</symbol>

<symbol id="book" viewBox="0 0 10 10">
	<path d="M35,0c-1.7,0-3,1.3-3,3c0,3,3,7,3,7s3-4,3-7C38,1.3,36.7,0,35,0z M35,4c-0.6,0-1-0.4-1-1s0.4-1,1-1
	s1,0.4,1,1S35.6,4,35,4z"/>
</symbol>

<symbol id="arrow-left" viewBox="0 0 10 10">
	<polygon points="50,5 55,10 56,9 53,6 60,6 60,4 53,4 56,1 55,0 "/>
</symbol>

<symbol id="arrow-up" viewBox="0 0 10 10">
	<polygon points="65,0 60,5 61,6 64,3 64,10 66,10 66,3 69,6 70,5 "/>
</symbol>

<symbol id="arrow-right" viewBox="0 0 10 10">
	<polygon points="80,5 75,0 74,1 77,4 70,4 70,6 77,6 74,9 75,10 "/>
</symbol>

</defs>
</svg>
