<svg xmlns="http://www.w3.org/2000/svg" style="display: none">
<defs>

<symbol id="new-window" viewBox="0 0 10 10">
	<polygon points="0,1 0,10 7,10 7,7 6,7 6,9 1,9 1,2 2,2 2,1 "/>
	<polygon points="4,0 10,0 10,6 9,6 9,2 6,5 5,4 8,1 4,1 "/>
</symbol>

<symbol id="media" viewBox="0 0 10 10">
	<path d="M0,0v10h10V0H0z M2.9,8V2l5,3L2.9,8z"/>
</symbol>

<symbol id="wikipedia" viewBox="0 0 10 10">
	<polygon points="0,0 0,1 1,1 2,10 3,10 5,4 7,10 8,10 9,1 10,1 10,0 8,0 7,7 5,2 3,7 2,0 	"/>
</symbol>

<symbol id="book" viewBox="0 0 10 10">
	<path d="M0,0v10l5-1V1L0,0z M4,8L1,9V1l3,1V8z"/>
	<path d="M5,1v8l5,1V0L5,1z M9,9L5,8V2l4-1V9z"/>
</symbol>

<symbol id="location" viewBox="0 0 10 10">
	<path d="M5,0C3.3,0,2,1.3,2,3c0,3,3,7,3,7s3-4,3-7C8,1.3,6.7,0,5,0z M5,4C4.4,4,4,3.6,4,3s0.4-1,1-1s1,0.4,1,1
		S5.6,4,5,4z"/>
</symbol>

<symbol id="arrow-left" viewBox="0 0 10 10">
	<title>Left arrow</title>
	<polygon points="0,5 5,10 6,9 3,6 10,6 10,4 3,4 6,1 5,0 	"/>
</symbol>

<symbol id="arrow-up" viewBox="0 0 10 10">
	<polygon points="5,0 0,5 1,6 4,3 4,10 6,10 6,3 9,6 10,5 	"/>
</symbol>

<symbol id="arrow-right" viewBox="0 0 10 10">
	<polygon points="10,5 5,0 4,1 7,4 0,4 0,6 7,6 4,9 5,10 	"/>
</symbol>

<symbol id="footer" viewBox="0 0 10 10">
	<polygon points="10,10 0,10 0,1.3 10,0"/>
</symbol>

<symbol id="header" viewBox="0 0 10 10">
	<polygon points="0,0 10,0 10,8.8 0,10"/>
</symbol>

<symbol id="septagon" viewBox="-0.4 0 474 512">
	<polygon points="52,410.6 0,182.7 145.7,0 473.2,0 473.2,410.6 262.6,512 "/>
</symbol>

<symbol id="phoenix" viewBox="-68.6 0.6 512 512">
	<path d="M376,310.1c-19.6-98-56.3-162-72.5-194.6c5.3-23.1-0.3-49.7-12.7-74.9c-1.8,31.4-24.3,57.4-49.7,77.4 c13.9-34.4,8.5-77.5-38.7-118c5.2,40-16.3,91.6-42.6,122.8c-35.8,4-69.5,12.4-78.7,39.7c-38.2,6.9-82.4,19.4-81,65.2 c0.5,17.3,11,36.7,23.7,44.1c24.5-57.5,105.3-22.2,139,26.1c-20,22.2-69.4,50.1-69.4,103.6c0,67.1,98.2,110.5,98.2,110.5l-11.3-26.2
	C271.1,368.9,376,310.1,376,310.1z"/>
</symbol>

<symbol id="ost" viewBox="0 0 100 100" preserveAspectRatio="none">
	<polygon points="0,0 100,0 32,100" />
</symbol>

</defs>
</svg>