<?xml version="1.0" encoding="utf-8"?>
<!-- Generator: Adobe Illustrator 15.0.2, SVG Export Plug-In  -->
<!DOCTYPE svg PUBLIC "-//W3C//DTD SVG 1.1 Tiny//EN" "http://www.w3.org/Graphics/SVG/1.1/DTD/svg11-tiny.dtd" [
	<!ENTITY ns_flows "http://ns.adobe.com/Flows/1.0/">
]>
<svg version="1.1" baseProfile="tiny"
	 xmlns="http://www.w3.org/2000/svg" xmlns:xlink="http://www.w3.org/1999/xlink" xmlns:a="http://ns.adobe.com/AdobeSVGViewerExtensions/3.0/"
	 x="0px" y="0px" width="60" height="10" viewBox="0 0 60 10" xml:space="preserve">
<defs>
</defs>
<polygon fill="#999999" points="0,1 0,10 7,10 7,7 6,7 6,9 1,9 1,2 2,2 2,1 "/>
<polygon fill="#999999" points="4,0 10,0 10,6 9,6 9,2 6,5 5,4 8,1 4,1 "/>
<path fill="#999999" d="M10,0v10h10V0H10z M12.9,8V2l5,3L12.9,8z"/>
<polygon fill="#999999" points="20,0 20,1 21,1 22,10 23,10 25,4 27,10 28,10 29,1 30,1 30,0 28,0 27,7 25,2 23,7 22,0 "/>
<path fill="#999999" d="M40,0v10l5-1V1L40,0z M44,8l-3,1V1l3,1V8z"/>
<path fill="#999999" d="M45,1v8l5,1V0L45,1z M49,9l-4-1V2l4-1V9z"/>
<path fill="#999999" d="M35,0c-1.7,0-3,1.3-3,3c0,3,3,7,3,7s3-4,3-7C38,1.3,36.7,0,35,0z M35,4c-0.6,0-1-0.4-1-1s0.4-1,1-1
	s1,0.4,1,1S35.6,4,35,4z"/>
</svg>
